<?xml version="1.0" standalone="no"?>
<!DOCTYPE svg PUBLIC "-//W3C//DTD SVG 1.1//EN" "http://www.w3.org/Graphics/SVG/1.1/DTD/svg11.dtd" >
<svg xmlns="http://www.w3.org/2000/svg">
<metadata></metadata>
<defs>
<font id="bordademibold" horiz-adv-x="403" >
<font-face units-per-em="2048" ascent="1638" descent="-410" />
<missing-glyph horiz-adv-x="614" />
<glyph horiz-adv-x="0" />
<glyph horiz-adv-x="682" />
<glyph unicode=" "  horiz-adv-x="614" />
<glyph unicode="&#x09;" horiz-adv-x="614" />
<glyph unicode="&#xa0;" horiz-adv-x="614" />
<glyph unicode="!" d="M89 0v224h227v-224h-227zM104 1016v418h197v-418l-18 -648h-160z" />
<glyph unicode="&#x22;" horiz-adv-x="698" d="M86 1340v209h196v-209l-19 -253h-158zM418 1340v209h197v-209l-19 -253h-158z" />
<glyph unicode="#" horiz-adv-x="1316" d="M76 479v115l52 51h213l48 223h-313v115l52 52h296l85 399h186l-85 -399h243l85 399h186l-85 -399h202v-167h-237l-48 -223h285v-166h-320l-102 -479h-186l102 479h-243l-102 -479h-186l102 479h-230zM527 645h244l47 223h-244z" />
<glyph unicode="$" horiz-adv-x="1101" d="M81 53v122h407v498l-322 164q-45 23 -65 57t-20 89v120q0 52 13 85t48 68l115 114q38 38 68.5 51t79.5 13h83v96h128v-96h288l55 -54v-121h-343v-452l267 -135q140 -71 140 -209v-126q0 -52 -18 -93t-62 -85l-86 -85q-74 -74 -193 -74h-48v-96h-128v96h-352zM270 1019 q0 -37 36 -55l182 -92v387h-50q-38 0 -59 -23l-85 -88q-24 -25 -24 -54v-75zM616 175h48q37 0 59 22l86 86q24 24 24 54v123q0 37 -36 56l-181 92v-433z" />
<glyph unicode="%" horiz-adv-x="1355" d="M85 940v296q0 41 29 70l46 47q29 29 71 29h180q42 0 71 -29l46 -47q29 -29 29 -71v-295q0 -42 -29 -71l-46 -47q-29 -29 -71 -29h-180q-42 0 -71 29l-46 47q-29 29 -29 71zM174 -33l860 1500h151l-860 -1500h-151zM202 948q0 -12 7 -19l26 -27q7 -7 15 -7h142q7 0 14 7 l27 27q6 6 6 19v279q0 13 -6 19l-27 27q-7 7 -15 7h-141q-8 0 -15 -7l-26 -27q-7 -7 -7 -19v-279zM800 191v296q0 40 30 70l46 47q29 29 71 29h180q41 0 70 -29l47 -47q29 -29 29 -70v-296q0 -42 -29 -71l-47 -47q-29 -29 -70 -29h-180q-42 0 -71 29l-46 47q-30 30 -30 71z M918 199q0 -13 6 -19l27 -27q7 -7 15 -7h141q7 0 15 8l27 26q6 6 6 19v279q0 13 -6 19l-27 27q-7 7 -15 7h-141q-8 0 -15 -7l-27 -27q-6 -6 -6 -19v-279z" />
<glyph unicode="&#x26;" horiz-adv-x="1280" d="M76 255v129q0 41 11.5 69.5t39.5 56.5l256 256l-163 171q-29 30 -40.5 57.5t-11.5 67.5v111q0 41 11.5 68.5t40.5 56.5l82 82q29 29 56.5 40.5t67.5 11.5h173q41 0 68.5 -11.5t56.5 -40.5l82 -82q28 -28 39.5 -56t11.5 -69v-111q0 -40 -11.5 -67t-37.5 -56l-174 -175 l313 -325l175 175l84 -85v-85l-135 -135l135 -140v-105l-75 -76l-187 194l-134 -134q-29 -29 -56.5 -40.5t-68.5 -11.5h-351q-41 0 -68.5 11.5t-56.5 40.5l-81 82q-29 29 -40.5 56.5t-11.5 68.5zM265 268q0 -21 16 -37l48 -49q15 -15 39 -15h282q25 0 40 15l130 130 l-313 325l-226 -228q-16 -16 -16 -37v-104zM357 1074q0 -19 16 -37l137 -143l143 143q15 15 15 37v87q0 21 -16 37l-48 48q-16 16 -39 16h-104q-23 0 -39 -16l-49 -48q-16 -16 -16 -37v-87z" />
<glyph unicode="'" horiz-adv-x="374" d="M90 1340v209h197v-209l-20 -253h-158z" />
<glyph unicode="(" horiz-adv-x="618" d="M87 93v1173q0 40 11 66.5t40 55.5l169 168q29 29 55.5 40t66.5 11h106v-179h-61q-24 0 -40 -16l-137 -136q-17 -17 -17 -38v-1117q0 -22 17 -39l139 -137q19 -15 38 -15h61v-178h-106q-40 0 -67 11.5t-55 39.5l-150 148q-41 39 -55.5 67.5t-14.5 74.5z" />
<glyph unicode=")" horiz-adv-x="618" d="M87 -70h61q24 0 41 17l136 135q17 17 17 39v1117q0 21 -17 38l-137 136q-16 16 -40 16h-61v179h106q40 0 66.5 -11t55.5 -40l169 -168q29 -29 40 -55.5t11 -66.5v-1173q0 -45 -15 -74t-55 -68l-150 -148q-28 -28 -55 -39.5t-67 -11.5h-106v178z" />
<glyph unicode="*" horiz-adv-x="999" d="M80 868l166 96l121 57l-121 58l-166 96l78 136l167 -96l108 -74l-10 129v193h157v-193l-10 -128l106 73l167 96l78 -136l-166 -96l-121 -58l121 -57l166 -96l-78 -137l-167 97l-106 72l10 -128v-192h-157v193l10 129l-108 -74l-167 -97z" />
<glyph unicode="+" horiz-adv-x="1087" d="M79 508v182h369v375h192v-375h370v-182h-370v-375h-192v375h-369z" />
<glyph unicode="," horiz-adv-x="442" d="M106 -186l79 172h-58v213h227v-148q0 -61 -26 -117l-57 -120h-165z" />
<glyph unicode="-" horiz-adv-x="839" d="M84 510v182h673v-182h-673z" />
<glyph unicode="." d="M89 -57v224h227v-224h-227z" />
<glyph unicode="/" horiz-adv-x="837" d="M91 0l471 1434h192l-471 -1434h-192z" />
<glyph unicode="0" horiz-adv-x="999" d="M76 256v866q0 41 11.5 68.5t39.5 55.5l82 81q29 29 56 40t67 11h338q40 0 67 -11t56 -40l81 -81q28 -28 39.5 -55.5t11.5 -68.5v-866q0 -40 -11 -67t-40 -56l-81 -82q-29 -29 -56 -40t-67 -11h-338q-40 0 -67 11t-56 40l-82 82q-29 29 -40 56t-11 67zM260 268 q0 -20 17 -37l49 -49q16 -16 39 -16h271q23 0 39 16l50 49q16 16 16 38v841q0 22 -16 38l-50 49q-15 15 -39 15h-271q-24 0 -39 -15l-49 -49q-17 -17 -17 -38v-842z" />
<glyph unicode="1" horiz-adv-x="632" d="M33 1178l39 83l315 117h105l65 -64v-1316h-184v1181l-301 -111z" />
<glyph unicode="2" horiz-adv-x="1040" d="M74 -2v407q0 140 141 211l498 255q36 18 36 53v128q0 28 -23 52l-85 87q-19 21 -56 21h-205q-36 0 -56 -21l-105 -108l-127 127l105 104q37 37 68.5 50.5t81.5 13.5h271q50 0 82 -13.5t69 -50.5l102 -103q35 -35 48.5 -69t13.5 -86v-151q0 -121 -75 -159l-562 -285 q-37 -19 -37 -54v-242h731v-111l-58 -56h-858z" />
<glyph unicode="3" horiz-adv-x="962" d="M41 125l124 123l68 -68q15 -15 39 -15h326q25 0 40 15l49 50q16 16 16 37v272q0 21 -16 37l-101 101q-16 16 -40 16h-338v166h358q25 0 39 16l72 74q17 19 17 38v123q0 21 -17 38l-49 49q-16 16 -40 16h-306q-23 0 -39 -16l-68 -68l-124 124l74 74q29 29 56 40.5t67 11.5 h374q40 0 67 -11.5t56 -40.5l82 -81q28 -28 39.5 -55.5t11.5 -68.5v-147q0 -40 -11.5 -67.5t-39.5 -56.5l-83 -84l93 -93q29 -29 40 -56t11 -67v-296q0 -40 -11 -67t-40 -56l-82 -82q-29 -29 -56 -40.5t-67 -11.5h-394q-40 0 -67 11.5t-56 40.5z" />
<glyph unicode="4" horiz-adv-x="1028" d="M45 373v88l473 917h222l65 -64v-839h180v-101l-64 -65h-116v-311h-184v311h-511zM258 475h363v672h-11z" />
<glyph unicode="5" horiz-adv-x="942" d="M74 735l79 580l64 64h550l64 -65v-101h-503l-56 -403h344q40 0 67 -11t56 -40l82 -82q29 -29 40 -56t11 -67v-299q0 -40 -11 -67t-40 -56l-82 -82q-29 -29 -56 -40.5t-67 -11.5h-338q-40 0 -67 11.5t-56 40.5l-74 74l124 124l67 -68q15 -15 40 -15h270q25 0 40 15l49 50 q17 17 17 37v275q0 20 -17 37l-49 50q-15 15 -39 15h-418z" />
<glyph unicode="6" horiz-adv-x="960" d="M76 263v859q0 40 11 67t40 56l81 82q29 29 56 40t67 11h338q40 0 67 -11t56 -40l74 -74l-123 -124l-68 68q-15 15 -40 15h-270q-25 0 -40 -15l-49 -49q-16 -16 -16 -38v-323l157 73q51 24 106 24h108q39 0 66 -11.5t57 -41.5l82 -82q51 -51 51 -129v-357q0 -78 -51 -129 l-81 -81q-31 -32 -57.5 -42.5t-66.5 -10.5h-300q-39 0 -65.5 11t-57.5 42l-81 81q-51 51 -51 129zM260 264q0 -19 16 -35l48 -48q14 -14 40 -14h235q25 0 39 14l48 48q17 17 17 35v357q0 18 -17 35l-47 48q-14 14 -40 14h-72q-17 0 -29 -5l-238 -112v-337z" />
<glyph unicode="7" horiz-adv-x="825" d="M34 1211v103l64 64h624l64 -64v-64l-382 -1252h-186l363 1213h-547z" />
<glyph unicode="8" horiz-adv-x="999" d="M76 257v295q0 40 11 67t40 56l55 55l-45 45q-29 29 -40 56t-11 67v224q0 41 11.5 68.5t39.5 55.5l82 81q29 29 56 40t67 11h318q40 0 67 -11t56 -40l81 -81q28 -28 39.5 -55.5t11.5 -68.5v-224q0 -41 -11.5 -68t-39.5 -55l-45 -45l55 -55q29 -29 40 -56t11 -67v-295 q0 -40 -11 -67t-40 -56l-81 -82q-29 -29 -56 -40t-67 -11h-338q-40 0 -67 11t-56 40l-82 82q-29 29 -40 56t-11 67zM260 269q0 -20 17 -37l49 -49q16 -16 40 -16h270q24 0 40 16l49 49q16 16 16 37v271q0 22 -16 38l-49 49q-13 13 -38 15h-275q-24 -2 -37 -15l-49 -49 q-17 -17 -17 -38v-271zM270 910q0 -20 17 -37l49 -49q14 -14 37 -16h255q24 2 38 16l49 49q16 16 16 37v200q0 22 -16 38l-49 49q-15 15 -40 15h-251q-24 0 -39 -15l-49 -49q-17 -17 -17 -38v-200z" />
<glyph unicode="9" horiz-adv-x="960" d="M76 790v324q0 78 51 129l81 82q30 30 57 41.5t66 11.5h300q39 0 66 -11.5t57 -41.5l82 -82q51 -51 51 -129v-859q0 -40 -11 -67t-40 -56l-82 -83q-28 -27 -55 -38t-68 -11h-338q-41 0 -67.5 11t-55.5 39l-74 74l124 124l67 -67q16 -16 40 -16h271q23 0 39 16l49 49 q17 17 17 37v356l-158 -73q-53 -25 -105 -25h-109q-39 0 -65.5 11.5t-57.5 42.5l-81 81q-51 51 -51 130zM260 789q0 -20 16 -36l48 -47q15 -15 39 -15h72q19 0 29 6l239 112v304q0 18 -17 35l-48 48q-15 15 -39 15h-235q-25 0 -40 -15l-48 -48q-16 -16 -16 -35v-324z" />
<glyph unicode=":" d="M89 -18v225h227v-225h-227zM89 817v225h227v-225h-227z" />
<glyph unicode=";" horiz-adv-x="442" d="M106 -186l79 172h-58v213h227v-148q0 -61 -26 -117l-57 -120h-165zM127 810v224h227v-224h-227z" />
<glyph unicode="&#x3c;" horiz-adv-x="1126" d="M80 427v221l897 434l68 -163l-738 -355v-53l738 -355l-68 -162z" />
<glyph unicode="=" horiz-adv-x="1087" d="M81 321v182h930v-182h-930zM81 693v182h930v-182h-930z" />
<glyph unicode="&#x3e;" horiz-adv-x="1126" d="M83 156l739 355v53l-739 355l69 163l897 -434v-221l-897 -433z" />
<glyph unicode="?" horiz-adv-x="983" d="M88 1264l105 105q37 37 69 51t82 14h244q50 0 82 -13.5t69 -51.5l103 -103q35 -35 48.5 -69.5t13.5 -86.5v-156q0 -121 -76 -160l-233 -118q-37 -19 -37 -57v-250h-186v256q0 139 141 212l169 87q37 19 37 54v128q0 28 -23 51l-85 85q-23 23 -56 23h-178q-34 0 -57 -23 l-105 -105zM352 0v224h227v-224h-227z" />
<glyph unicode="@" horiz-adv-x="1499" d="M89 71v754q0 63 43 106l159 157q44 44 105 44h709q61 0 105 -44l159 -157q43 -43 43 -106v-462q1 -62 -43 -106l-158 -157q-44 -44 -105 -44h-208l-9 50l-60 -29q-43 -21 -92 -21h-121q-57 0 -98 41l-61 61q-40 40 -40 98v84q0 57 40 97l70 70q41 40 97 40h260v81 q0 16 -12 28l-40 40q-11 11 -30 11h-343v96l44 43h328q56 0 97 -41l69 -68q38 -38 40 -98v-439h52q23 0 38 15l115 131q16 18 16 37v423q0 19 -14 33l-138 137q-15 15 -39 15h-633q-24 0 -38 -14l-138 -136q-15 -15 -15 -36v-713q0 -21 16 -36l137 -138q16 -12 36 -12h605 v-141h-641q-63 0 -105 43l-159 157q-43 43 -43 106zM569 267q0 -15 13 -28l33 -33q11 -11 29 -11h90q16 0 26 5l124 59v150h-231q-18 0 -30 -12l-41 -41q-13 -13 -13 -28v-61z" />
<glyph unicode="A" horiz-adv-x="1288" d="M46 49l447 1385h303l446 -1385l-105 -49h-81l-143 456h-537l-144 -456h-81zM431 631h426l-197 628h-32z" />
<glyph unicode="B" horiz-adv-x="1228" d="M173 0v1371l62 63h586q40 0 66 -11t55 -40l82 -81q28 -28 39 -55t11 -67v-294q0 -63 -31 -101l-24 -24q-3 -3 -3 -7t4 -8l70 -70q28 -28 39 -54.5t11 -66.5v-302q0 -40 -11 -66.5t-39 -54.5l-82 -82q-28 -28 -54 -39t-66 -11h-715zM362 175h481q24 0 40 16l51 50 q17 17 17 39v248q0 22 -17 39l-51 50q-16 16 -40 16h-481v-458zM362 808h415q24 0 40 16l51 51q17 17 17 39v239q0 22 -17 39l-51 51q-16 16 -40 16h-415v-451z" />
<glyph unicode="C" horiz-adv-x="1200" d="M134 339v755q0 40 11 67t39 54l169 169q28 28 54 39t66 11h363q40 0 66.5 -11t54.5 -39l161 -161l-133 -133l-153 153q-16 16 -41 16h-273q-25 0 -41 -16l-137 -137q-17 -17 -17 -39v-700q0 -22 17 -39l137 -137q16 -16 41 -16h273q25 0 41 16l153 152l133 -133 l-161 -160q-28 -28 -54.5 -39t-66.5 -11h-363q-40 0 -66 11t-54 39l-169 168q-28 27 -39 54t-11 67z" />
<glyph unicode="D" horiz-adv-x="1296" d="M173 0v1371l62 63h591q40 0 66.5 -11t54.5 -39l169 -169q28 -27 39 -54t11 -67v-755q0 -40 -11 -67t-39 -54l-169 -168q-28 -28 -54.5 -39t-66.5 -11h-653zM362 175h420q24 0 40 16l138 137q17 17 17 39v700q0 22 -17 39l-138 137q-16 16 -40 16h-420v-1084z" />
<glyph unicode="E" horiz-adv-x="1095" d="M151 253v927q0 40 11 67t39 55l81 81q29 29 55 40t66 11h545l62 -63v-112h-562q-25 0 -41 -16l-50 -51q-17 -17 -17 -39v-349h557v-175h-557v-349q0 -21 17 -38l50 -51q16 -16 41 -16h562v-113l-62 -62h-545q-40 0 -66.5 11t-54.5 39l-81 82q-28 28 -39 54.5t-11 66.5z " />
<glyph unicode="F" horiz-adv-x="1079" d="M171 2v1179q0 40 11 66.5t39 54.5l81 82q28 28 54.5 39t66.5 11h507l63 -63v-112h-525q-25 0 -41 -16l-50 -51q-17 -17 -17 -39v-386h520v-176h-520v-589h-189z" />
<glyph unicode="G" horiz-adv-x="1269" d="M133 339v757q0 40 11 67t39 54l169 168q49 49 101 49h2h377q40 0 66 -11t55 -40l161 -160l-133 -133l-154 154q-21 21 -47 17h-263q-25 0 -41 -16l-137 -137q-17 -17 -17 -39v-702q0 -22 17 -39l140 -138q21 -21 47 -17h261q25 0 41 16l138 137q17 17 17 39v253h-324v113 l62 63h451v-456q0 -40 -11 -67.5t-39 -54.5l-169 -168q-50 -48 -104 -48h-377q-40 0 -66 11t-54 39l-169 168q-28 27 -39 54t-11 67z" />
<glyph unicode="H" horiz-adv-x="1388" d="M173 0v1371l63 63h127v-606h664v543l62 63h127v-1434h-189v653h-664v-653h-190z" />
<glyph unicode="I" horiz-adv-x="514" d="M162 0v1371l63 63h127v-1434h-190z" />
<glyph unicode="J" horiz-adv-x="659" d="M43 -78h156q25 0 42 17l49 47q16 19 16 40v1221h-263v113l62 62h390v-1422q0 -41 -10.5 -65.5t-37.5 -53.5l-83 -82q-29 -29 -55.5 -41t-66.5 -12h-199v176z" />
<glyph unicode="K" horiz-adv-x="1206" d="M174 0v1371l63 63h127v-648l570 648h78l83 -83l-519 -599l581 -670l-83 -82h-78l-542 612l-90 -104v-508h-190z" />
<glyph unicode="L" horiz-adv-x="1038" d="M171 62v1309l62 63h127v-1259h631v-175h-758z" />
<glyph unicode="M" horiz-adv-x="1806" d="M156 0v1371l63 62h303l367 -1258h27l367 1258h303l63 -62v-1371h-190v1259h-41l-386 -1259h-260l-384 1259h-42v-1259h-190z" />
<glyph unicode="N" horiz-adv-x="1366" d="M163 0v1371l63 63h263l508 -1259h18v1259h190v-1372l-63 -62h-260l-509 1259h-20v-1259h-190z" />
<glyph unicode="O" horiz-adv-x="1357" d="M133 339v755q0 40 11 67t39 54l169 169q28 28 54.5 39t66.5 11h414q40 0 66 -11t54 -39l170 -169q28 -27 39 -54t11 -67v-755q0 -40 -11 -67t-39 -54l-170 -168q-28 -28 -54 -39t-66 -11h-414q-40 0 -66.5 11t-54.5 39l-169 168q-28 27 -39 54t-11 67zM322 367 q0 -22 17 -39l138 -137q16 -16 41 -16h324q25 0 41 16l137 137q17 17 17 39v700q0 22 -17 39l-137 137q-16 16 -41 16h-324q-25 0 -41 -16l-138 -137q-17 -17 -17 -39v-700z" />
<glyph unicode="P" horiz-adv-x="1202" d="M172 0v1371l62 63h607q39 0 65 -11t55 -40l82 -81q28 -28 39 -55t11 -67v-334q0 -40 -11 -66.5t-39 -54.5l-82 -82q-28 -28 -54 -39t-66 -11h-480v-593h-189zM361 768h435q25 0 41 16l50 50q17 17 17 39v280q0 22 -17 39l-50 51q-16 16 -41 16h-435v-491z" />
<glyph unicode="Q" horiz-adv-x="1400" d="M136 338v756q0 40 11 67t39 54l170 168q28 28 54 39t66 11h414q40 0 66.5 -11t54.5 -39l169 -168q28 -27 39 -54t11 -67v-756q0 -68 -43 -114l-37 -36l187 -188l-82 -78h-86l-143 144l-31 -31q-44 -37 -105 -37h-414q-39 0 -65 11t-55 40l-170 168q-28 27 -39 54t-11 67z M326 366q0 -22 17 -39l137 -137q16 -16 41 -16h324q25 0 41 16l138 137q17 17 17 39v700q0 22 -17 39l-138 137q-16 16 -41 16h-324q-25 0 -41 -16l-137 -137q-17 -17 -17 -39v-700z" />
<glyph unicode="R" horiz-adv-x="1239" d="M174 0v1371l62 63h606q40 0 66.5 -11t54.5 -39l82 -82q28 -28 39 -55t11 -67v-299q0 -40 -11 -66.5t-39 -54.5l-82 -82q-21 -21 -43 -29l-36 -2l270 -567l-81 -80h-89l-298 630h-323v-630h-189zM363 803h435q24 0 40 16l51 51q17 17 17 39v244q0 22 -17 39l-51 51 q-16 16 -41 16h-434v-456z" />
<glyph unicode="S" horiz-adv-x="1120" d="M90 53v122h583q37 0 59 22l86 86q24 24 24 54v123q0 38 -37 56l-629 321q-45 23 -65.5 57.5t-20.5 88.5v120q0 51 13.5 84.5t48.5 68.5l114 114q38 38 68.5 51t79.5 13h500l55 -54v-122h-521q-39 0 -59 -22l-85 -88q-24 -25 -24 -54v-77q0 -35 36 -53l577 -292 q139 -71 139 -209v-126q0 -52 -18 -93t-62 -85l-86 -85q-74 -74 -193 -74h-528z" />
<glyph unicode="T" horiz-adv-x="1130" d="M51 1259v112l62 63h906l62 -63v-112h-420v-1259h-190v1259h-420z" />
<glyph unicode="U" horiz-adv-x="1341" d="M173 253v1118l62 63h128v-1154q0 -23 16 -39l51 -50q16 -16 41 -16h412q25 0 41 16l50 50q17 17 17 39v1091l63 63h127v-1181q0 -40 -11 -66.5t-39 -54.5l-82 -82q-28 -28 -54.5 -39t-66.5 -11h-502q-40 0 -66.5 11t-54.5 39l-82 82q-28 28 -39 54.5t-11 66.5z" />
<glyph unicode="V" horiz-adv-x="1282" d="M49 1385l104 49h81l373 -1259h71l372 1259h81l105 -49l-420 -1385h-348z" />
<glyph unicode="W" horiz-adv-x="1978" d="M40 1385l104 49h82l295 -1259h38l279 1259h306l278 -1259h38l296 1259h82l104 -49l-351 -1385h-298l-293 1259h-17l-294 -1259h-298z" />
<glyph unicode="X" horiz-adv-x="1146" d="M48 81l415 639l-415 632l82 82h79l369 -560l356 560h85l82 -81l-415 -641l415 -631l-82 -81h-81l-365 558l-362 -558h-81z" />
<glyph unicode="Y" horiz-adv-x="1193" d="M47 1384l105 50h80l320 -764h92l319 764h80l106 -50l-387 -889h-69v-495h-190v495h-69z" />
<glyph unicode="Z" horiz-adv-x="1173" d="M91 62v221l773 924v52h-732v112l62 63h796l63 -63v-225l-773 -924v-47h803v-113l-63 -62h-866z" />
<glyph unicode="[" horiz-adv-x="559" d="M88 -193v1673l63 64h323v-116l-63 -63h-130v-1441h129l64 -61v-119h-322z" />
<glyph unicode="\" horiz-adv-x="833" d="M91 1434h183l471 -1434h-183z" />
<glyph unicode="]" horiz-adv-x="559" d="M88 -137l64 61h129v1441h-130l-63 63v116h323l63 -64v-1673l-64 -63h-322v119z" />
<glyph unicode="^" horiz-adv-x="1255" d="M83 568l430 888h233l429 -888l-169 -71l-346 718h-62l-346 -718z" />
<glyph unicode="_" horiz-adv-x="1165" d="M78 -172h1009v-164h-1009v164z" />
<glyph unicode="`" horiz-adv-x="501" d="M84 1469l104 96l230 -272l-82 -75z" />
<glyph unicode="a" horiz-adv-x="989" d="M90 253v112q0 40 11 66.5t39 54.5l92 92q28 28 54.5 38.5t66.5 10.5h358v124q0 21 -17 38l-59 59q-16 16 -41 16h-448v111l51 49h430q40 0 66 -11t54 -39l91 -91q28 -28 39 -54.5t11 -66.5v-762h-161l-13 72l-95 -46q-55 -26 -117 -26h-160q-40 0 -66.5 11t-54.5 39 l-81 82q-28 28 -39 54.5t-11 66.5zM267 264q0 -21 17 -38l50 -50q16 -16 40 -16h127q20 0 34 7l176 83v218h-326q-24 0 -40 -16l-61 -60q-17 -17 -17 -39v-89z" />
<glyph unicode="b" horiz-adv-x="1011" d="M121 252v1166l50 50h127v-544l162 76q49 23 104 23h108q40 0 66 -11t54 -39l82 -82q28 -28 39 -54.5t11 -66.5v-518q0 -40 -11 -66.5t-39 -54.5l-82 -82q-28 -27 -54.5 -38t-65.5 -11h-300q-39 0 -65 11t-55 39l-81 81q-28 28 -39 54.5t-11 66.5zM298 264q0 -22 17 -39 l50 -50q16 -16 40 -16h234q25 0 41 16l50 50q16 16 16 39v495q0 23 -16 39l-50 50q-15 15 -41 15h-69q-20 0 -34 -7l-238 -112v-480z" />
<glyph unicode="c" horiz-adv-x="909" d="M92 253v518q0 40 11 66.5t39 54.5l81 82q28 28 54 39t66 11h316q40 0 66 -11t54 -39l72 -73l-119 -118l-66 65q-16 16 -40 16h-250q-24 0 -40 -16l-50 -50q-17 -17 -17 -38v-496q0 -21 17 -38l50 -50q16 -16 40 -16h250q24 0 40 16l66 65l119 -119l-72 -72 q-28 -28 -54 -39t-66 -11h-316q-40 0 -66 11t-54 39l-81 82q-28 28 -39 54.5t-11 66.5z" />
<glyph unicode="d" horiz-adv-x="1007" d="M90 253v508q0 40 11 66.5t39 54.5l93 92q28 28 54 39t66 11h358v444h128l49 -49v-1419h-161l-13 72l-96 -46q-56 -26 -116 -26h-160q-39 0 -65.5 11t-55.5 39l-81 82q-28 28 -39 54.5t-11 66.5zM267 264q0 -22 17 -39l50 -50q16 -16 41 -16h127q18 0 34 8l175 82v615 h-326q-24 0 -40 -16l-61 -60q-17 -17 -17 -39v-485z" />
<glyph unicode="e" horiz-adv-x="960" d="M90 253v518q0 40 11 66.5t39 54.5l81 82q28 28 54 39t66 11h290q40 0 66.5 -11t54.5 -39l81 -82q28 -28 39 -54.5t11 -66.5v-276l-50 -51h-566v-180q0 -21 17 -38l50 -50q16 -16 40 -16h224q25 0 41 16l65 65l120 -118l-72 -73q-28 -28 -54.5 -39t-66.5 -11h-290 q-40 0 -66 11t-54 39l-81 82q-28 28 -39 54.5t-11 66.5zM267 603h439v157q0 21 -17 38l-50 50q-16 16 -41 16h-224q-24 0 -40 -16l-50 -50q-17 -17 -17 -38v-157z" />
<glyph unicode="f" horiz-adv-x="626" d="M35 865v110l50 49h107v157q0 40 11 66.5t39 54.5l81 81q29 29 55 40t66 11h98l51 -50v-110h-116q-25 0 -41 -16l-50 -50q-17 -17 -17 -38v-146h204v-159h-204v-865h-177v865h-157z" />
<glyph unicode="g" horiz-adv-x="999" d="M90 268v510q0 39 10.5 62t39.5 52l81 82q28 28 54.5 39t66.5 11h299q40 0 66.5 -11t54.5 -39l81 -82q28 -28 39 -54.5t11 -66.5v-878q0 -39 -11 -64t-37 -54l-93 -92q-28 -30 -54.5 -40t-65.5 -10h-430l-51 47v113h449q23 0 39 14l60 60q17 17 17 39v193l-162 -75 q-51 -24 -104 -24h-108q-40 0 -66 11t-55 40l-81 81q-50 50 -50 136zM267 264q0 -21 17 -38l50 -50q16 -16 40 -16h71q14 0 31 7l240 112v481q0 22 -17 39l-50 50q-16 16 -41 16h-234q-24 0 -40 -16l-50 -50q-17 -17 -17 -39v-496z" />
<glyph unicode="h" horiz-adv-x="1034" d="M125 0v1417l50 51h127v-544l162 76q49 23 104 23h108q40 0 66 -11t54 -39l82 -82q28 -28 38.5 -54.5t10.5 -66.5v-770h-177v759q0 22 -17 39l-49 49q-16 16 -41 16h-69q-20 0 -34 -7l-238 -112v-744h-177z" />
<glyph unicode="i" horiz-adv-x="436" d="M122 1176v203h205v-203h-205zM136 0v1024h177v-1024h-177z" />
<glyph unicode="j" horiz-adv-x="444" d="M-39 -211h71q24 0 40 16l51 52q17 17 17 39v1129h177v-1142q0 -39 -10 -65t-37 -56l-84 -84q-29 -27 -55.5 -38t-64.5 -11h-105v160zM126 1176v203h205v-203h-205z" />
<glyph unicode="k" horiz-adv-x="1003" d="M134 0v1417l50 51h127v-801l457 356h87l81 -80l-456 -354l494 -511l-80 -78h-88l-444 476l-51 -75v-401h-177z" />
<glyph unicode="l" horiz-adv-x="557" d="M125 253v1165l50 50h127v-1204q0 -21 17 -38l51 -51q16 -16 40 -16h111v-159h-145q-39 0 -65 11t-55 39l-74 73q-32 31 -44.5 59.5t-12.5 70.5z" />
<glyph unicode="m" horiz-adv-x="1581" d="M109 0v1024h158l16 -86l133 63q49 23 104 23h115q40 0 66 -11t54 -39l65 -65l196 92q49 23 104 23h115q40 0 66 -11t54 -39l81 -82q28 -28 39 -54.5t11 -66.5v-771h-177v760q0 21 -17 38l-50 50q-16 16 -40 16h-75q-20 0 -34 -7l-207 -97v-760h-177v760q0 21 -17 38 l-50 50q-16 16 -40 16h-75q-20 0 -34 -7l-207 -98v-759h-177z" />
<glyph unicode="n" horiz-adv-x="1038" d="M121 0v1024h156l18 -100l165 77q49 23 104 23h114q40 0 66 -11t54 -39l82 -82q28 -28 39 -54.5t11 -66.5v-771h-178v760q0 22 -16 38l-50 50q-16 16 -41 16h-74q-20 0 -34 -7l-239 -112v-745h-177z" />
<glyph unicode="o" horiz-adv-x="997" d="M90 253v518q0 40 11 66.5t39 54.5l82 82q28 28 54 39t66 11h315q40 0 66.5 -11t54.5 -39l81 -82q28 -28 39 -54.5t11 -66.5v-518q0 -40 -11 -66.5t-39 -54.5l-81 -82q-28 -28 -54.5 -39t-66.5 -11h-315q-40 0 -66 11t-54 39l-82 82q-28 28 -39 54.5t-11 66.5zM268 264 q0 -22 16 -38l50 -50q16 -16 41 -16h250q24 0 40 16l50 50q17 17 17 38v496q0 21 -17 38l-50 50q-16 16 -40 16h-250q-25 0 -41 -16l-50 -50q-16 -16 -16 -38v-496z" />
<glyph unicode="p" horiz-adv-x="1021" d="M131 -369v1393h156l18 -100l165 77q49 23 104 23h108q40 0 66.5 -11t54.5 -39l81 -82q28 -28 39 -54.5t11 -66.5v-518q0 -40 -11 -66.5t-39 -54.5l-81 -81q-28 -28 -54.5 -39t-66.5 -11h-374v-318l-50 -52h-127zM308 160h341q25 0 41 16l50 50q17 17 17 38v496 q0 22 -17 39l-50 49q-16 16 -41 16h-68q-20 0 -34 -7l-239 -112v-585z" />
<glyph unicode="q" horiz-adv-x="1011" d="M90 253v518q0 40 11 66.5t39 54.5l81 82q28 28 54.5 39t66.5 11h299q40 0 66.5 -11t54.5 -39l81 -82q28 -28 39 -54.5t11 -66.5v-1088l-51 -50h-126v466l-162 -76q-50 -22 -104 -22h-108q-40 0 -66.5 11t-54.5 39l-81 81q-28 28 -39 54.5t-11 66.5zM267 264q0 -21 17 -38 l50 -50q16 -16 40 -16h69q20 0 34 7l239 112v481q0 22 -17 39l-50 50q-16 16 -41 16h-234q-24 0 -40 -16l-50 -50q-17 -17 -17 -39v-496z" />
<glyph unicode="r" horiz-adv-x="673" d="M117 0v1024h146l27 -150l163 125q16 12 36.5 18t32.5 6.5t38 0.5h75v-160h-68q-24 0 -38 -10l-235 -171v-683h-177z" />
<glyph unicode="s" horiz-adv-x="888" d="M89 49v111h427q24 0 40 16l50 50q17 17 17 38v43q0 27 -27 41l-435 221q-72 37 -72 119v83q0 40 10.5 66.5t38.5 54.5l82 82q28 28 54 39t66 11h365l50 -49v-111h-382q-27 0 -41 -16l-50 -51q-16 -16 -16 -38v-33q0 -29 27 -42l397 -201q110 -56 110 -163v-63 q0 -40 -14 -71.5t-49 -66.5l-61 -61q-58 -58 -152 -58h-385z" />
<glyph unicode="t" horiz-adv-x="681" d="M41 865v110l50 49h107v235h177v-235h224v-159h-224v-602q0 -21 17 -38l50 -50q16 -16 41 -16h116v-110l-51 -49h-98q-40 0 -66.5 10.5t-54.5 38.5l-81 82q-28 28 -39 54.5t-11 66.5v613h-157z" />
<glyph unicode="u" horiz-adv-x="1028" d="M111 253v771h177v-760q0 -21 17 -38l49 -50q16 -16 41 -16h75q20 0 34 7l238 112v745h177v-1024h-156l-17 100l-166 -77q-49 -23 -104 -23h-114q-40 0 -66 11t-54 39l-82 82q-28 28 -38.5 54.5t-10.5 66.5z" />
<glyph unicode="v" horiz-adv-x="1054" d="M38 988l78 36h96l285 -864h62l286 864h96l77 -36l-339 -988h-301z" />
<glyph unicode="w" horiz-adv-x="1607" d="M24 983l88 41h87l214 -864h36l229 864h254l230 -864h35l214 864h87l88 -41l-272 -983h-270l-234 864h-13l-231 -864h-270z" />
<glyph unicode="x" horiz-adv-x="980" d="M37 983l88 41h96l271 -368l259 368h96l86 -40l-334 -471l347 -472l-89 -41h-96l-269 369l-270 -369h-96l-87 41l346 471z" />
<glyph unicode="y" horiz-adv-x="1005" d="M37 988l77 36h97l280 -864h21l285 864h95l78 -36l-345 -1004q-12 -31 -19 -48.5t-26.5 -58t-39 -67t-52.5 -62.5t-69.5 -60t-88 -44.5t-110.5 -28.5l-25 143q102 17 150.5 62t79.5 123l19 57h-67z" />
<glyph unicode="z" horiz-adv-x="978" d="M90 49v204l604 593v18h-572v111l51 49h647l51 -49v-189l-604 -593v-33h622v-111l-50 -49h-698z" />
<glyph unicode="{" horiz-adv-x="718" d="M86 609v125l178 125v426q0 40 11 66.5t40 55.5l177 177l136 -135l-154 -154q-17 -17 -17 -38v-476l-151 -110l151 -108v-477q0 -21 17 -38l153 -152l-134 -138l-179 183q-27 25 -38.5 51.5t-11.5 66.5v425z" />
<glyph unicode="|" horiz-adv-x="374" d="M90 -283v1814h197v-1814h-197z" />
<glyph unicode="}" horiz-adv-x="718" d="M93 1449l136 135l178 -177q28 -28 39 -54.5t11 -67.5v-426l178 -125v-126l-178 -124v-425q0 -40 -11.5 -66.5t-38.5 -53.5l-179 -181l-134 138l153 152q17 17 17 38v477l151 108l-151 110v476q0 21 -17 38z" />
<glyph unicode="~" horiz-adv-x="1181" d="M85 547q43 66 72 105t68.5 81.5t79 63.5t83.5 25q30 2 41 2q52 0 96 -21t122 -83q104 -82 158 -82q41 0 83 36t105 120l108 -71q-57 -141 -136.5 -212t-170.5 -71q-87 0 -178 63q-13 9 -35.5 25t-32 23t-26.5 18.5t-25 16.5t-21 12.5t-21 10.5t-18 6.5t-19 4.5t-18 1 q-19 0 -36 -4q-80 -18 -168 -152z" />
<glyph unicode="&#xa1;" d="M89 875v225h227v-225h-227zM104 84l19 648h160l18 -649v-417h-197v418z" />
<glyph unicode="&#xa2;" horiz-adv-x="940" d="M82 252v520q0 41 11.5 68.5t39.5 55.5l82 82q29 29 56 40t67 11h91v101h137v-101h89q41 0 68.5 -11t55.5 -40l74 -75l-124 -124l-68 68q-16 16 -40 16h-55v-702h55q24 0 40 16l68 68l124 -124l-74 -75q-29 -29 -56.5 -40.5t-67.5 -11.5h-89v-100h-137v100h-91 q-40 0 -67 11.5t-56 40.5l-82 82q-28 28 -39.5 55.5t-11.5 68.5zM267 264q0 -22 16 -38l50 -49q16 -16 39 -16h57v702h-57q-24 0 -40 -16l-49 -49q-16 -16 -16 -38v-496z" />
<glyph unicode="&#xa3;" horiz-adv-x="1122" d="M89 215l124 123q17 17 17 39v253h-134v175h134v233q0 40 11 67t39 54l169 168q28 28 54.5 39t66.5 11h149q40 0 66 -11t54 -39l161 -160l-132 -133l-154 152q-16 16 -40 16h-60q-24 0 -40 -16l-138 -137q-17 -17 -17 -39v-205h381v-113l-62 -62h-319v-280q0 -53 -26 -90 l-26 -28q-2 -2 -2 -7t6 -6l62 -28q39 -13 93 -13h517v-175h-673q-40 0 -66.5 11t-54.5 39z" />
<glyph unicode="&#xa4;" horiz-adv-x="1464" />
<glyph unicode="&#xa5;" horiz-adv-x="1269" d="M85 1382l106 50h79l320 -760h92l320 760h80l105 -50l-246 -564h116v-175h-193l-55 -126h-78v-118h326v-175h-326v-224h-190v224h-325v175h325v118h-78l-55 126h-192v175h116z" />
<glyph unicode="&#xa6;" horiz-adv-x="374" d="M90 -283v721h197v-721h-197zM90 809v722h197v-722h-197z" />
<glyph unicode="&#xa7;" horiz-adv-x="868" d="M75 -70h428q23 0 40 15l50 51q17 15 17 38v42q0 28 -27 42l-435 221q-73 37 -73 119v83q0 40 11 66.5t39 54.5l52 52q18 18 26 21l-55 28q-73 37 -73 119v82q0 40 11 66.5t39 54.5l82 82q28 28 54 39t66 11h365l50 -49v-110h-383q-25 0 -40 -17l-50 -51q-16 -16 -16 -38 v-33q0 -29 26 -41l398 -202q110 -56 110 -163v-62q0 -76 -63 -139l-30 -31q-7 -7 -31 -23l44 -25q80 -55 80 -144v-62q0 -78 -63 -138l-61 -61q-59 -57 -152 -57h-385l-51 47v112zM260 495q0 -15 9 -29.5t24 -21.5l200 -97q31 2 48 19l41 42q21 21 21 46v43q0 15 -9 29.5 t-24 21.5l-188 92h-11q-30 0 -50 -20l-41 -42q-20 -20 -20 -47v-36z" />
<glyph unicode="&#xa8;" horiz-adv-x="686" d="M92 1327v143h153v-143h-153zM443 1327v143h153v-143h-153z" />
<glyph unicode="&#xa9;" horiz-adv-x="1495" d="M85 716q0 183 89 337t241.5 243t332.5 89t332.5 -89t241.5 -243t89 -337t-89 -337t-241.5 -243t-332.5 -89t-332.5 89t-241.5 243t-89 337zM215 716q0 -146 72 -270.5t194.5 -196.5t266.5 -72t266.5 72t194.5 196.5t72 270.5t-72 270.5t-194.5 196.5t-266.5 72 t-266.5 -72t-194.5 -196.5t-72 -270.5zM447 516v400q0 51 31 80l91 90q32 32 75 32l194 1q43 0 76 -33l101 -101l-92 -92l-90 89q-7 7 -13 7h-158q-6 0 -13 -7l-67 -66q-5 -5 -5 -15v-370q0 -10 5 -15l67 -66q7 -7 13 -7h158q6 0 13 7l90 89l92 -92l-101 -101 q-33 -33 -76 -33h-194q-42 0 -75 33l-91 90q-31 29 -31 80z" />
<glyph unicode="&#xaa;" horiz-adv-x="667" d="M77 989v69q0 49 34 83l57 57q34 34 83 34h209v61q0 13 -10 23l-30 31q-9 9 -25 9h-283v84l38 37h270q48 0 82 -34l56 -56q34 -34 34 -83v-482h-120l-7 39l-45 -21q-39 -18 -77 -18h-99q-48 0 -83 35l-50 50q-34 34 -34 82zM209 1000q0 -13 10 -23l25 -25q9 -9 25 -9h71 q11 0 21 5l99 47v116h-184q-16 0 -25 -9l-32 -32q-10 -10 -10 -22v-48z" />
<glyph unicode="&#xab;" horiz-adv-x="1138" d="M80 428v220l384 358l108 -108l-296 -360l296 -361l-108 -108zM568 428v220l384 358l108 -108l-297 -360l297 -360l-108 -108z" />
<glyph unicode="&#xac;" horiz-adv-x="1464" />
<glyph unicode="&#xad;" horiz-adv-x="839" d="M84 510v182h673v-182h-673z" />
<glyph unicode="&#xae;" horiz-adv-x="1495" d="M85 716q0 183 89 337t241.5 243t332.5 89t332.5 -89t241.5 -243t89 -337t-89 -337t-241.5 -243t-332.5 -89t-332.5 89t-241.5 243t-89 337zM215 716q0 -146 72 -270.5t194.5 -196.5t266.5 -72t266.5 72t194.5 196.5t72 270.5t-72 270.5t-194.5 196.5t-266.5 72 t-266.5 -72t-194.5 -196.5t-72 -270.5zM488 343v727l44 44h330q42 0 75 -33l44 -43q32 -32 32 -80v-158q0 -48 -32 -80l-44 -43q-11 -11 -15 -12l-14 -2l126 -261l-59 -59h-64l-138 301h-152v-301h-133zM620 778h225q6 0 13 7l21 21q6 6 6 17v111q0 11 -6 17l-21 21 q-7 7 -13 7h-225v-201z" />
<glyph unicode="&#xaf;" horiz-adv-x="710" d="M93 1393v129h525v-129h-525z" />
<glyph unicode="&#xb0;" horiz-adv-x="751" d="M70 1344q0 128 90 217.5t217 89.5t216.5 -89.5t89.5 -217.5t-89.5 -217t-216.5 -89q-128 0 -217.5 89.5t-89.5 216.5zM203 1344q0 -69 52.5 -121t121.5 -52t121 52t52 121t-52 121.5t-121 52.5t-121.5 -52.5t-52.5 -121.5z" />
<glyph unicode="&#xb1;" horiz-adv-x="1087" d="M79 -4v183h931v-183h-931zM79 663v183h369v314h192v-314h370v-183h-370v-315h-192v315h-369z" />
<glyph unicode="&#xb2;" horiz-adv-x="735" d="M77 516v259q0 91 92 138l308 157q4 2 7.5 3.5t5.5 2t3 0.5h1h1l-1 2q0 1 -0.5 5t-0.5 9v81q0 14 -11 25l-44 44q-21 21 -29 21h-134q-17 0 -28 -11l-71 -73l-91 91l71 71q43 43 99 43h167q57 0 99 -43l63 -63q41 -41 41 -103v-88q0 -80 -62 -112l-338 -171 q-4 -2 -7.5 -3.5t-5.5 -2t-3 -0.5h-1h-1l1 -2q0 -1 1 -4.5t1 -9.5v-146h450v-81l-41 -39h-542z" />
<glyph unicode="&#xb3;" horiz-adv-x="694" d="M72 604l90 89l46 -46q9 -9 24 -9h193q16 0 25 9l25 25q10 10 10 23v160q0 13 -10 23l-57 57q-10 10 -25 10h-214v121h226q15 0 24 9l40 40q10 10 10 23v69q0 12 -11 23l-25 25q-9 9 -24 9h-181q-15 0 -24 -9l-46 -46l-89 89l52 52q35 35 82 35h231q48 0 82 -34l51 -51 q34 -34 34 -82v-91q0 -46 -34 -82l-45 -46l51 -50q34 -34 34 -83v-182q0 -49 -34 -83l-51 -50q-34 -34 -82 -34h-243q-48 0 -82 34z" />
<glyph unicode="&#xb4;" horiz-adv-x="501" d="M85 1293l230 272l104 -96l-252 -251z" />
<glyph unicode="&#xb6;" horiz-adv-x="1036" d="M81 886v292q0 40 11 67t40 56l82 82q29 29 55.5 40t66.5 11h557l64 -64v-1595h-193v1480h-152v-1480h-193v856h-83q-40 0 -67 11t-55 39l-82 82q-29 29 -40 56t-11 67z" />
<glyph unicode="&#xb7;" d="M89 485v224h227v-224h-227z" />
<glyph unicode="&#xb8;" horiz-adv-x="538" d="M105 -96l62 129h157l-37 -72q5 1 15 1q2 0 38 -3q61 -17 93.5 -58t32.5 -96q0 -68 -48 -116.5t-131 -48.5h-130v110h120q23 0 39.5 17.5t16.5 42.5q0 24 -16.5 38.5t-38.5 16.5q-38 0 -100 -33z" />
<glyph unicode="&#xb9;" horiz-adv-x="491" d="M75 1251l27 58l200 75h70l45 -45v-823h-132v722l-181 -67z" />
<glyph unicode="&#xba;" horiz-adv-x="681" d="M77 989v321q0 48 34 82l50 51q34 34 83 34h195q48 0 82 -34l50 -51q34 -34 34 -82v-321q0 -48 -34 -82l-50 -50q-35 -35 -82 -35h-195q-48 0 -83 35l-50 50q-34 34 -34 82zM209 1000q0 -13 10 -23l25 -25q9 -9 25 -9h145q15 0 24 9l25 25q10 10 10 23v299q0 13 -10 23 l-25 25q-9 9 -24 9h-145q-16 0 -25 -9l-25 -25q-10 -10 -10 -23v-299z" />
<glyph unicode="&#xbb;" horiz-adv-x="1138" d="M82 177l296 361l-296 360l108 108l383 -358v-220l-383 -359zM569 177l296 361l-296 360l108 108l384 -358v-220l-384 -359z" />
<glyph unicode="&#xbc;" horiz-adv-x="1542" d="M81 1249l27 57l200 75h70l45 -45v-823h-132v722l-181 -67zM200 -33l974 1467h167l-975 -1467h-166zM863 239v60l293 570h149l45 -45v-510h111v-75l-45 -45h-66v-193h-132v193h-309zM1021 314h197v379z" />
<glyph unicode="&#xbd;" horiz-adv-x="1691" d="M82 1249l27 57l199 75h71l45 -45v-823h-132v722l-182 -67zM200 -33l975 1467h167l-975 -1467h-167zM1028 -2v260q0 92 91 138l303 155q21 11 21 31v72q0 18 -13 30l-46 45q-17 17 -33 17h-122q-21 0 -33 -12l-69 -72l-92 92l71 71q42 42 99 42h167q58 0 99 -42l64 -64 q41 -41 41 -102v-89q0 -80 -62 -112l-332 -168q-22 -11 -22 -31v-139h450v-81l-41 -41h-541z" />
<glyph unicode="&#xbe;" horiz-adv-x="1646" d="M78 600l90 89l46 -46q9 -9 24 -9h193q16 0 25 9l25 25q10 10 10 23v160q0 13 -10 23l-57 57q-10 10 -25 10h-214v121h226q15 0 24 9l40 40q10 10 10 23v69q0 12 -11 23l-25 25q-9 9 -24 9h-181q-15 0 -24 -9l-46 -46l-89 89l52 53q34 34 82 34h231q48 0 82 -34l50 -51 q34 -34 34 -82v-90q0 -48 -33 -83l-45 -46l51 -50q34 -34 34 -83v-182q0 -48 -34 -82l-51 -51q-34 -34 -82 -34h-243q-48 0 -82 34zM312 -33l974 1467h167l-974 -1467h-167zM967 239v60l293 570h148l45 -45v-510h112v-75l-45 -45h-67v-193h-131v193h-310zM1125 314h197v380z " />
<glyph unicode="&#xbf;" horiz-adv-x="983" d="M82 -12v157q0 122 75 160l233 118q38 20 38 57v250h185v-256q0 -139 -141 -212l-169 -87q-36 -19 -36 -54v-129q0 -28 22 -49l85 -86q23 -23 57 -23h177q34 0 57 23l105 104l127 -125l-105 -106q-38 -38 -69.5 -52t-80.5 -14h-244q-49 0 -81 14.5t-70 51.5l-103 104 q-35 34 -48.5 68t-13.5 86zM406 875v224h227v-224h-227z" />
<glyph unicode="&#xc0;" horiz-adv-x="1288" d="M47 49l446 1385h303l446 -1385l-105 -49h-81l-143 456h-537l-144 -456h-81zM431 631h426l-197 628h-32zM478 1878l104 96l230 -272l-82 -76z" />
<glyph unicode="&#xc1;" horiz-adv-x="1288" d="M47 49l446 1385h303l446 -1385l-105 -49h-81l-143 456h-537l-144 -456h-81zM431 631h426l-197 628h-32zM478 1702l230 272l104 -96l-252 -252z" />
<glyph unicode="&#xc2;" horiz-adv-x="1288" d="M47 49l446 1385h303l446 -1385l-105 -49h-81l-143 456h-537l-144 -456h-81zM347 1702l228 270h140l229 -270l-83 -76l-216 216l-216 -216zM431 631h426l-197 628h-32z" />
<glyph unicode="&#xc3;" horiz-adv-x="1288" d="M46 49l447 1385h303l446 -1385l-105 -49h-81l-143 456h-537l-144 -456h-81zM297 1786q3 5 20.5 30.5t27.5 39.5t31 38t38 38t40.5 26t46.5 14q9 1 26 1q35 0 66.5 -14.5t84.5 -56.5q73 -57 106 -57q27 0 56 26t74 87l78 -51q-79 -189 -206 -189q-57 0 -121 44 q-25 17 -52 37.5t-37.5 28.5t-23.5 13.5t-25 5.5q-5 0 -27 -4q-55 -12 -118 -116zM431 631h426l-197 628h-32z" />
<glyph unicode="&#xc4;" horiz-adv-x="1288" d="M46 49l447 1385h303l446 -1385l-105 -49h-81l-143 456h-537l-144 -456h-81zM393 1735v143h153v-143h-153zM431 631h426l-197 628h-32zM744 1735v143h153v-143h-153z" />
<glyph unicode="&#xc5;" horiz-adv-x="1288" d="M47 49l446 1385h303l446 -1385l-105 -49h-80l-144 456h-537l-144 -456h-81zM431 631h427l-198 628h-32zM449 1844q0 82 57 139t139 57t139 -57t57 -139t-57 -139.5t-139 -57.5t-139 57.5t-57 139.5zM568 1844q0 -32 22.5 -56t54.5 -24t55 24t23 56t-23 56t-55 24 t-54.5 -24t-22.5 -56z" />
<glyph unicode="&#xc6;" horiz-adv-x="1597" d="M46 49l446 1385h960l64 -64v-115h-671v-449h558v-178h-558v-346q0 -21 17 -38l50 -50q16 -16 40 -16h564v-115l-64 -63h-545q-40 0 -66.5 11t-55.5 40l-82 81q-28 28 -39 55t-11 68v198h-276l-143 -453h-82zM433 631h220v624h-23z" />
<glyph unicode="&#xc7;" horiz-adv-x="1200" d="M134 339v755q0 40 11 67t39 54l169 169q28 28 54 39t66 11h363q40 0 66 -11t55 -40l161 -160l-133 -133l-153 153q-16 16 -41 16h-273q-25 0 -41 -16l-137 -137q-17 -17 -17 -39v-700q0 -22 17 -39l137 -137q16 -16 41 -16h273q25 0 41 16l153 152l133 -133l-161 -160 q-28 -28 -54.5 -39t-66.5 -11h-175l-26 -49h10q16 0 44 -4q60 -15 93 -56.5t33 -97.5q0 -68 -48.5 -117t-130.5 -49h-131v113h121q23 0 39.5 17t16.5 40q0 26 -16.5 40.5t-38.5 14.5q-1 0 -5 0.5t-5 0.5q-32 0 -90 -31l-73 69l51 109h-32q-40 0 -66 11t-54 39l-169 168 q-28 27 -39 54t-11 67z" />
<glyph unicode="&#xc8;" horiz-adv-x="1095" d="M151 253v927q0 40 11 67t39 55l81 82q28 28 54.5 39t66.5 11h545l62 -63v-112h-562q-25 0 -41 -16l-50 -51q-17 -17 -17 -39v-349h557v-175h-557v-349q0 -21 17 -38l50 -51q16 -16 41 -16h562v-113l-62 -62h-545q-40 0 -66.5 11t-54.5 39l-81 82q-28 28 -39 54.5 t-11 66.5zM444 1878l105 96l229 -272l-82 -76z" />
<glyph unicode="&#xc9;" horiz-adv-x="1095" d="M151 253v927q0 40 11 67t39 55l81 81q29 29 55 40t66 11h545l62 -63v-112h-562q-25 0 -41 -16l-50 -51q-17 -17 -17 -39v-349h557v-175h-557v-349q0 -21 17 -38l50 -51q16 -16 41 -16h562v-113l-62 -62h-545q-40 0 -66.5 11t-54.5 39l-81 82q-28 28 -39 54.5t-11 66.5z M445 1702l229 272l105 -96l-252 -252z" />
<glyph unicode="&#xca;" horiz-adv-x="1095" d="M151 253v927q0 40 11 67t39 55l81 81q29 29 55 40t66 11h545l62 -63v-112h-562q-25 0 -41 -16l-50 -51q-17 -17 -17 -39v-349h557v-175h-557v-349q0 -21 17 -38l50 -51q16 -16 41 -16h562v-113l-62 -62h-545q-40 0 -66.5 11t-54.5 39l-81 82q-28 28 -39 54.5t-11 66.5z M313 1702l228 270h141l228 -270l-82 -76l-217 216l-216 -216z" />
<glyph unicode="&#xcb;" horiz-adv-x="1095" d="M151 253v927q0 40 11 67t39 55l81 81q29 29 55 40t66 11h545l62 -63v-112h-562q-25 0 -41 -16l-50 -51q-17 -17 -17 -39v-349h557v-175h-557v-349q0 -21 17 -38l50 -51q16 -16 41 -16h562v-113l-62 -62h-545q-40 0 -66.5 11t-54.5 39l-81 82q-28 28 -39 54.5t-11 66.5z M360 1735v143h152v-143h-152zM711 1735v143h152v-143h-152z" />
<glyph unicode="&#xcc;" horiz-adv-x="514" d="M91 1878l104 96l230 -272l-82 -76zM162 0v1371l63 63h127v-1434h-190z" />
<glyph unicode="&#xcd;" horiz-adv-x="514" d="M91 1702l230 272l104 -96l-252 -252zM162 0v1371l63 63h127v-1434h-190z" />
<glyph unicode="&#xce;" horiz-adv-x="514" d="M-41 1702l229 270h140l228 -270l-82 -76l-216 216l-216 -216zM162 0v1371l63 63h127v-1434h-190z" />
<glyph unicode="&#xcf;" horiz-adv-x="514" d="M6 1735v143h153v-143h-153zM162 0v1371l63 63h127v-1434h-190zM357 1735v143h153v-143h-153z" />
<glyph unicode="&#xd0;" horiz-adv-x="1353" d="M60 626v182h170v562l64 64h592q40 0 66 -11t55 -40l170 -168q28 -28 39 -55t11 -68v-751q0 -41 -11 -67.5t-39 -54.5l-170 -168q-29 -29 -55 -40t-66 -11h-656v626h-170zM423 178h418q23 0 39 16l138 137q17 17 17 37v697q0 21 -17 38l-138 137q-15 15 -39 15h-418v-447 h311v-182h-311v-448z" />
<glyph unicode="&#xd1;" horiz-adv-x="1366" d="M163 0v1371l63 63h263l508 -1259h18v1259h190v-1372l-63 -62h-260l-509 1259h-20v-1259h-190zM336 1786q3 5 20.5 30.5t27.5 39.5t31 38t38 38t40.5 26t46.5 14q9 1 26 1q35 0 66.5 -14.5t84.5 -56.5q73 -57 106 -57q27 0 55.5 25.5t73.5 87.5l79 -51q-79 -189 -206 -189 q-57 0 -121 44q-25 17 -52 37.5t-37.5 28.5t-23.5 13.5t-25 5.5q-5 0 -27 -4q-55 -12 -118 -116z" />
<glyph unicode="&#xd2;" horiz-adv-x="1357" d="M133 339v755q0 40 11 67t39 54l169 169q28 28 54.5 39t66.5 11h414q40 0 66 -11t54 -39l170 -169q28 -27 39 -54t11 -67v-755q0 -40 -11 -67t-39 -54l-170 -168q-28 -28 -54 -39t-66 -11h-414q-40 0 -66.5 11t-54.5 39l-169 168q-28 27 -39 54t-11 67zM322 367 q0 -22 17 -39l138 -137q16 -16 41 -16h324q25 0 41 16l137 137q17 17 17 39v700q0 22 -17 39l-137 137q-16 16 -41 16h-324q-25 0 -41 -16l-138 -137q-17 -17 -17 -39v-700zM513 1878l104 96l230 -272l-82 -76z" />
<glyph unicode="&#xd3;" horiz-adv-x="1357" d="M133 339v755q0 40 11 67t39 54l169 169q28 28 54.5 39t66.5 11h414q40 0 66 -11t54 -39l170 -169q28 -27 39 -54t11 -67v-755q0 -40 -11 -67t-39 -54l-170 -168q-28 -28 -54 -39t-66 -11h-414q-40 0 -66.5 11t-54.5 39l-169 168q-28 27 -39 54t-11 67zM322 367 q0 -22 17 -39l138 -137q16 -16 41 -16h324q25 0 41 16l137 137q17 17 17 39v700q0 22 -17 39l-137 137q-16 16 -41 16h-324q-25 0 -41 -16l-138 -137q-17 -17 -17 -39v-700zM513 1702l230 272l104 -96l-252 -252z" />
<glyph unicode="&#xd4;" horiz-adv-x="1357" d="M133 339v755q0 40 11 67t39 54l169 169q28 28 54.5 39t66.5 11h414q40 0 66 -11t54 -39l170 -169q28 -27 39 -54t11 -67v-755q0 -40 -11 -67t-39 -54l-170 -168q-28 -28 -54 -39t-66 -11h-414q-40 0 -66.5 11t-54.5 39l-169 168q-28 27 -39 54t-11 67zM322 367 q0 -22 17 -39l138 -137q16 -16 41 -16h324q25 0 41 16l137 137q17 17 17 39v700q0 22 -17 39l-137 137q-16 16 -41 16h-324q-25 0 -41 -16l-138 -137q-17 -17 -17 -39v-700zM382 1702l228 270h140l228 -270l-82 -76l-216 216l-216 -216z" />
<glyph unicode="&#xd5;" horiz-adv-x="1357" d="M133 339v755q0 40 11 67t39 54l169 169q28 28 54.5 39t66.5 11h414q40 0 66 -11t54 -39l170 -169q28 -27 39 -54t11 -67v-755q0 -40 -11 -67t-39 -54l-170 -168q-28 -28 -54 -39t-66 -11h-414q-40 0 -66.5 11t-54.5 39l-169 168q-28 27 -39 54t-11 67zM322 367 q0 -22 17 -39l138 -137q16 -16 41 -16h324q25 0 41 16l137 137q17 17 17 39v700q0 22 -17 39l-137 137q-16 16 -41 16h-324q-25 0 -41 -16l-138 -137q-17 -17 -17 -39v-700zM332 1786q3 5 20.5 30.5t27.5 39.5t31 38t38 38t40.5 26t46.5 14q9 1 26 1q35 0 66.5 -14.5 t84.5 -56.5q73 -57 106 -57q27 0 55.5 25.5t73.5 87.5l79 -51q-79 -189 -206 -189q-57 0 -121 44q-25 17 -52 37.5t-37.5 28.5t-23.5 13.5t-25 5.5q-5 0 -27 -4q-55 -12 -118 -116z" />
<glyph unicode="&#xd6;" horiz-adv-x="1357" d="M133 339v755q0 40 11 67t39 54l169 169q28 28 54.5 39t66.5 11h414q40 0 66 -11t54 -39l170 -169q28 -27 39 -54t11 -67v-755q0 -40 -11 -67t-39 -54l-170 -168q-28 -28 -54 -39t-66 -11h-414q-40 0 -66.5 11t-54.5 39l-169 168q-28 27 -39 54t-11 67zM322 367 q0 -22 17 -39l138 -137q16 -16 41 -16h324q25 0 41 16l137 137q17 17 17 39v700q0 22 -17 39l-137 137q-16 16 -41 16h-324q-25 0 -41 -16l-138 -137q-17 -17 -17 -39v-700zM428 1735v143h153v-143h-153zM779 1735v143h153v-143h-153z" />
<glyph unicode="&#xd7;" horiz-adv-x="962" d="M89 334l265 265l-264 265l128 128l265 -264l264 264l129 -128l-265 -265l265 -265l-128 -129l-265 266l-266 -266z" />
<glyph unicode="&#xd8;" horiz-adv-x="1357" d="M132 341v751q0 41 11 68t39 55l169 168q29 29 55.5 40t66.5 11h350l33 102h184l-47 -143q21 -14 48 -43l137 -135q28 -28 39 -55t11 -68v-751q0 -41 -11 -67.5t-39 -54.5l-169 -169q-28 -28 -55 -39t-67 -11h-352l-34 -102h-184l47 142q-25 21 -37 35l-145 144 q-28 28 -39 54.5t-11 67.5zM324 368q0 -20 17 -37l75 -75q10 -10 15 -14l333 1013h-246q-25 0 -40 -15l-137 -137q-17 -17 -17 -38v-697zM593 178h249q23 0 39 16l138 137q17 17 17 37v697q0 21 -17 38l-69 69q-13 13 -24 20z" />
<glyph unicode="&#xd9;" horiz-adv-x="1341" d="M173 253v1118l63 63h127v-1154q0 -23 16 -39l51 -50q16 -16 41 -16h412q25 0 41 16l50 50q17 17 17 39v1091l63 63h127v-1181q0 -40 -11 -66.5t-39 -54.5l-82 -82q-28 -28 -54.5 -39t-66.5 -11h-502q-40 0 -66.5 11t-54.5 39l-82 82q-28 28 -39 54.5t-11 66.5zM505 1878 l104 96l230 -272l-82 -76z" />
<glyph unicode="&#xda;" horiz-adv-x="1341" d="M173 253v1118l62 63h128v-1154q0 -23 16 -39l51 -50q16 -16 41 -16h412q25 0 41 16l50 50q17 17 17 39v1091l63 63h127v-1181q0 -40 -11 -66.5t-39 -54.5l-82 -82q-28 -28 -54.5 -39t-66.5 -11h-502q-40 0 -66.5 11t-54.5 39l-82 82q-28 28 -39 54.5t-11 66.5zM505 1702 l230 272l104 -96l-252 -252z" />
<glyph unicode="&#xdb;" horiz-adv-x="1341" d="M173 253v1118l62 63h128v-1154q0 -23 16 -39l51 -50q16 -16 41 -16h412q25 0 41 16l50 50q17 17 17 39v1091l63 63h127v-1181q0 -40 -11 -66.5t-39 -54.5l-82 -82q-28 -28 -54.5 -39t-66.5 -11h-502q-40 0 -66.5 11t-54.5 39l-82 82q-28 28 -39 54.5t-11 66.5zM373 1702 l229 270h140l228 -270l-82 -76l-216 216l-216 -216z" />
<glyph unicode="&#xdc;" horiz-adv-x="1341" d="M173 253v1118l62 63h128v-1154q0 -23 16 -39l51 -50q16 -16 41 -16h412q25 0 41 16l50 50q17 17 17 39v1091l63 63h127v-1181q0 -40 -11 -66.5t-39 -54.5l-82 -82q-28 -28 -54.5 -39t-66.5 -11h-502q-40 0 -66.5 11t-54.5 39l-82 82q-28 28 -39 54.5t-11 66.5zM420 1735 v143h153v-143h-153zM771 1735v143h153v-143h-153z" />
<glyph unicode="&#xdd;" horiz-adv-x="1193" d="M47 1384l105 50h80l320 -764h92l319 764h80l106 -50l-387 -889h-69v-495h-190v495h-69zM431 1702l230 272l104 -96l-252 -252z" />
<glyph unicode="&#xde;" horiz-adv-x="1228" d="M168 1v1433h197v-237h476q40 0 67 -11t56 -40l82 -82q28 -28 39.5 -55.5t11.5 -68.5v-331q0 -41 -11.5 -68.5t-39.5 -55.5l-82 -82q-29 -29 -56 -40t-67 -11h-476v-351h-197zM365 535h432q22 0 36 14l52 52q15 15 15 34v279q0 19 -15 34l-52 52q-14 14 -36 14h-432v-479z " />
<glyph unicode="&#xdf;" horiz-adv-x="1228" d="M169 0v1177q0 41 11.5 68.5t39.5 55.5l82 81q29 29 56 40.5t67 11.5h319q40 0 67.5 -11.5t56.5 -40.5l81 -81q28 -28 39.5 -55.5t11.5 -68.5v-225q0 -41 -11.5 -68.5t-39.5 -55.5l-44 -44l54 -55q28 -28 39.5 -55.5t11.5 -68.5v-348q0 -41 -11.5 -68.5t-39.5 -55.5 l-81 -82q-28 -28 -55.5 -39.5t-68.5 -11.5h-275v166h241q24 0 40 16l49 49q17 17 17 38v324q0 21 -17 38l-49 49q-16 16 -40 16h-241v166h234q21 0 37 16l49 49q17 17 17 37v201q0 20 -17 37l-49 49q-16 16 -40 16h-251q-23 0 -39 -16l-50 -49q-16 -16 -16 -37v-1165h-185z " />
<glyph unicode="&#xe0;" horiz-adv-x="989" d="M90 253v112q0 40 11 66.5t39 54.5l93 92q28 28 54 38.5t66 10.5h358v124q0 21 -17 38l-59 59q-16 16 -41 16h-448v111l51 49h430q40 0 66 -11t54 -39l91 -91q28 -28 39 -54.5t11 -66.5v-762h-161l-13 72l-95 -46q-55 -26 -117 -26h-160q-40 0 -66.5 11t-54.5 39l-81 82 q-28 28 -39 54.5t-11 66.5zM267 264q0 -21 17 -38l50 -50q16 -16 41 -16h126q20 0 34 7l176 83v218h-326q-24 0 -40 -16l-61 -60q-17 -17 -17 -39v-89zM336 1469l104 96l230 -272l-82 -76z" />
<glyph unicode="&#xe1;" horiz-adv-x="989" d="M90 253v112q0 40 11 66.5t39 54.5l92 92q28 28 54.5 38.5t66.5 10.5h358v124q0 21 -17 38l-59 59q-16 16 -41 16h-448v111l51 49h430q40 0 66 -11t54 -39l91 -91q28 -28 39 -54.5t11 -66.5v-762h-161l-13 72l-95 -46q-55 -26 -117 -26h-160q-40 0 -66.5 11t-54.5 39 l-81 82q-28 28 -39 54.5t-11 66.5zM267 264q0 -21 17 -38l50 -50q16 -16 40 -16h127q20 0 34 7l176 83v218h-326q-24 0 -40 -16l-61 -60q-17 -17 -17 -39v-89zM337 1293l229 272l104 -96l-251 -252z" />
<glyph unicode="&#xe2;" horiz-adv-x="989" d="M90 253v112q0 40 11 66.5t39 54.5l92 92q28 28 54.5 38.5t66.5 10.5h358v124q0 21 -17 38l-59 59q-16 16 -41 16h-448v111l51 49h430q40 0 66 -11t54 -39l91 -91q28 -28 39 -54.5t11 -66.5v-762h-161l-13 72l-95 -46q-55 -26 -117 -26h-161q-40 0 -66 11t-54 39l-81 82 q-28 28 -39 54.5t-11 66.5zM205 1293l228 270h141l228 -270l-82 -76l-217 216l-216 -216zM267 264q0 -21 17 -38l50 -50q16 -16 40 -16h127q20 0 34 7l176 83v218h-326q-24 0 -40 -16l-61 -60q-17 -17 -17 -39v-89z" />
<glyph unicode="&#xe3;" horiz-adv-x="989" d="M90 253v112q0 40 11 66.5t39 54.5l92 92q28 28 54.5 38.5t66.5 10.5h358v124q0 21 -17 38l-59 59q-16 16 -41 16h-448v111l51 49h430q40 0 66 -11t54 -39l91 -91q28 -28 39 -54.5t11 -66.5v-762h-161l-13 72l-95 -46q-55 -26 -117 -26h-161q-40 0 -66 11t-54 39l-81 82 q-28 28 -39 54.5t-11 66.5zM155 1377q3 5 20.5 30.5t27.5 39.5t31 38t38 38t40.5 26t46.5 14q9 1 26 1q35 0 66.5 -14.5t84.5 -56.5q73 -57 107 -57q27 0 55.5 25.5t73.5 87.5l78 -52q-79 -188 -205 -188q-58 0 -122 44q-25 17 -52 37.5t-37.5 28t-23 13t-24.5 5.5t-28 -3 q-53 -12 -117 -116zM267 264q0 -21 17 -38l50 -50q16 -16 40 -16h127q20 0 34 7l176 83v218h-326q-24 0 -40 -16l-61 -60q-17 -17 -17 -39v-89z" />
<glyph unicode="&#xe4;" horiz-adv-x="989" d="M90 253v112q0 40 11 66.5t39 54.5l92 92q28 28 54.5 38.5t66.5 10.5h358v124q0 21 -17 38l-59 59q-16 16 -41 16h-448v111l51 49h430q40 0 66 -11t54 -39l91 -91q28 -28 39 -54.5t11 -66.5v-762h-161l-13 72l-95 -46q-55 -26 -117 -26h-161q-40 0 -66 11t-54 39l-81 82 q-28 28 -39 54.5t-11 66.5zM251 1326v143h153v-143h-153zM267 264q0 -21 17 -38l50 -50q16 -16 40 -16h127q20 0 34 7l176 83v218h-326q-24 0 -40 -16l-61 -60q-17 -17 -17 -39v-89zM602 1326v143h153v-143h-153z" />
<glyph unicode="&#xe5;" horiz-adv-x="989" d="M90 253v112q0 40 11 66.5t39 54.5l93 92q28 28 54 39t66 11h358v123q0 21 -17 38l-59 59q-16 16 -41 16h-448v111l51 49h430q40 0 66.5 -11t54.5 -39l90 -91q28 -28 39 -54.5t11 -66.5v-762h-161l-13 72l-95 -46q-55 -26 -117 -26h-160q-40 0 -66.5 11t-54.5 39l-81 82 q-28 28 -39 54.5t-11 66.5zM267 264q0 -21 17 -38l50 -50q16 -16 41 -16h126q21 0 35 7l175 83v218h-325q-25 0 -41 -16l-61 -60q-17 -17 -17 -39v-89zM308 1435q0 82 56.5 139t138.5 57t139 -57t57 -139t-57 -139.5t-139 -57.5t-138.5 57t-56.5 140zM426 1435 q0 -32 22.5 -56t54.5 -24t55 24t23 56t-23 56t-55 24t-54.5 -24t-22.5 -56z" />
<glyph unicode="&#xe6;" horiz-adv-x="1658" d="M90 253v112q0 40 11 66.5t39 54.5l92 92q28 28 54.5 38.5t66.5 10.5h358v124q0 21 -17 38l-59 59q-16 16 -41 16h-448v111l51 49h430q40 0 66 -11t54 -39l47 -47q4 -4 8 -4q3 0 7 4l46 47q28 28 54.5 39t66.5 11h289q40 0 66.5 -11t54.5 -39l81 -82q28 -28 39 -54.5 t11 -66.5v-277l-50 -50h-566v-180q0 -21 17 -38l50 -50q16 -16 41 -16h224q24 0 40 16l66 65l119 -118l-72 -73q-28 -28 -54.5 -39t-66.5 -11h-282q-33 0 -63 24l-32 30v-54h-161l-13 72l-95 -46q-55 -26 -117 -26h-161q-40 0 -66 11t-54 39l-81 82q-28 28 -39 54.5 t-11 66.5zM267 264q0 -21 17 -38l50 -50q16 -16 40 -16h127q20 0 34 7l176 83v218h-326q-24 0 -40 -16l-61 -60q-17 -17 -17 -39v-89zM901 603h439v157q0 21 -17 38l-50 50q-16 16 -40 16h-224q-25 0 -41 -16l-50 -50q-17 -17 -17 -38v-157z" />
<glyph unicode="&#xe7;" horiz-adv-x="909" d="M92 253v518q0 40 11 66.5t39 54.5l81 82q28 28 54 39t66 11h316q40 0 66 -11t54 -39l72 -72l-119 -119l-66 65q-16 16 -40 16h-250q-24 0 -40 -16l-50 -50q-17 -17 -17 -38v-496q0 -21 17 -38l50 -50q16 -16 40 -16h250q24 0 40 16l66 65l119 -119l-72 -72 q-28 -28 -54 -39t-66 -11h-165l-21 -41q5 1 15 1q2 0 38 -3q60 -15 93 -56.5t33 -97.5q0 -68 -48.5 -117t-130.5 -49h-130v111h120q23 0 39.5 17t16.5 42t-16.5 39.5t-38.5 16.5q-21 1 -40.5 -5.5t-59.5 -27.5l-73 72l48 99h-16q-55 4 -100 49l-81 82q-28 28 -39 54.5 t-11 66.5z" />
<glyph unicode="&#xe8;" horiz-adv-x="960" d="M90 253v518q0 40 11 66.5t39 54.5l81 82q28 28 54 39t66 11h290q40 0 66.5 -11t54.5 -39l81 -82q28 -28 39 -54.5t11 -66.5v-276l-50 -51h-566v-180q0 -21 17 -38l50 -50q16 -16 40 -16h224q25 0 41 16l65 65l120 -118l-72 -73q-28 -28 -54.5 -39t-66.5 -11h-290 q-40 0 -66 11t-54 39l-81 82q-28 28 -39 54.5t-11 66.5zM267 603h439v157q0 21 -17 38l-50 50q-16 16 -41 16h-224q-24 0 -40 -16l-50 -50q-17 -17 -17 -38v-157zM314 1469l105 96l229 -272l-82 -76z" />
<glyph unicode="&#xe9;" horiz-adv-x="960" d="M90 253v518q0 40 11 66.5t39 54.5l81 82q28 28 54 39t66 11h290q40 0 66.5 -11t54.5 -39l81 -82q28 -28 39 -54.5t11 -66.5v-276l-50 -51h-566v-180q0 -21 17 -38l50 -50q16 -16 40 -16h224q25 0 41 16l65 65l120 -118l-72 -73q-28 -28 -54.5 -39t-66.5 -11h-290 q-40 0 -66 11t-54 39l-81 82q-28 28 -39 54.5t-11 66.5zM267 603h439v157q0 21 -17 38l-50 50q-16 16 -41 16h-224q-24 0 -40 -16l-50 -50q-17 -17 -17 -38v-157zM315 1293l229 272l105 -96l-252 -252z" />
<glyph unicode="&#xea;" horiz-adv-x="960" d="M90 253v518q0 40 11 66.5t39 54.5l81 82q28 28 54 39t66 11h290q40 0 66.5 -11t54.5 -39l81 -82q28 -28 39 -54.5t11 -66.5v-276l-50 -51h-566v-180q0 -21 17 -38l50 -50q16 -16 40 -16h224q25 0 41 16l65 65l120 -118l-72 -73q-28 -28 -54.5 -39t-66.5 -11h-290 q-40 0 -66 11t-54 39l-81 82q-28 28 -39 54.5t-11 66.5zM183 1293l228 270h141l228 -270l-82 -76l-217 216l-216 -216zM267 603h439v157q0 21 -17 38l-50 50q-16 16 -41 16h-224q-24 0 -40 -16l-50 -50q-17 -17 -17 -38v-157z" />
<glyph unicode="&#xeb;" horiz-adv-x="960" d="M90 253v518q0 40 11 66.5t39 54.5l81 82q28 28 54 39t66 11h290q40 0 66.5 -11t54.5 -39l81 -82q28 -28 39 -54.5t11 -66.5v-276l-51 -51h-565v-180q0 -21 17 -38l50 -50q16 -16 40 -16h224q25 0 41 16l65 65l120 -118l-72 -73q-28 -28 -54.5 -39t-66.5 -11h-290 q-40 0 -66 11t-54 39l-81 82q-28 28 -39 54.5t-11 66.5zM230 1326v143h152v-143h-152zM267 603h439v157q0 21 -17 38l-50 50q-16 16 -41 16h-224q-24 0 -40 -16l-50 -50q-17 -17 -17 -38v-157zM580 1326v143h153v-143h-153z" />
<glyph unicode="&#xec;" d="M35 1449l104 96l230 -272l-82 -76zM121 0v1024h177v-1024h-177z" />
<glyph unicode="&#xed;" d="M35 1273l230 272l104 -96l-251 -252zM121 0v1024h177v-1024h-177z" />
<glyph unicode="&#xee;" d="M-96 1273l228 270h140l229 -270l-82 -76l-217 216l-216 -216zM121 0v1024h177v-1024h-177z" />
<glyph unicode="&#xef;" d="M-49 1306v143h152v-143h-152zM121 0v1024h177v-1024h-177zM301 1306v143h153v-143h-153z" />
<glyph unicode="&#xf0;" horiz-adv-x="1085" d="M78 265v361q0 79 51 130l82 81q31 31 57.5 42.5t65.5 11.5h109q55 0 106 -24l158 -74v286l-110 -84l-57 73l157 121q-7 14 -21 28l-35 35q-15 15 -39 15h-271q-25 0 -40 -15l-68 -68l-124 124l74 75q28 28 55.5 39.5t68.5 11.5h338q41 0 68.5 -11.5t55.5 -39.5l47 -48 q24 -22 33 -35l108 84l60 -75l-119 -91q4 -16 4 -41v-912q0 -79 -51 -130l-82 -82q-31 -31 -57 -42t-66 -11h-302q-40 0 -66 11t-57 42l-82 82q-51 51 -51 130zM263 266q0 -18 17 -35l47 -48q15 -15 40 -15h236q24 0 39 15l48 48q17 17 17 35v341l-238 111q-16 7 -33 7h-69 q-25 0 -40 -15l-47 -48q-17 -17 -17 -35v-361z" />
<glyph unicode="&#xf1;" horiz-adv-x="1038" d="M121 0v1024h156l18 -100l165 77q49 23 104 23h114q40 0 66 -11t54 -39l82 -82q28 -28 39 -54.5t11 -66.5v-771h-178v760q0 22 -16 38l-50 50q-16 16 -41 16h-74q-20 0 -34 -7l-239 -112v-745h-177zM141 1345q3 5 20.5 30.5t27.5 39.5t31 38t38 38t40.5 26t46.5 14 q9 1 26 1q35 0 66.5 -14.5t84.5 -56.5q72 -56 106 -56q27 0 56 26t74 87l78 -52q-79 -188 -206 -188q-58 0 -121 43q-25 17 -52 37.5t-37.5 28.5t-23.5 13.5t-25 5.5q-5 0 -27 -4q-55 -13 -118 -115z" />
<glyph unicode="&#xf2;" horiz-adv-x="997" d="M90 253v518q0 40 11 66.5t39 54.5l82 82q28 28 54 39t66 11h315q40 0 66.5 -11t54.5 -39l81 -82q28 -28 39 -54.5t11 -66.5v-518q0 -40 -11 -66.5t-39 -54.5l-81 -82q-28 -28 -54.5 -39t-66.5 -11h-315q-40 0 -66 11t-54 39l-82 82q-28 28 -39 54.5t-11 66.5zM268 264 q0 -22 16 -38l50 -50q16 -16 41 -16h250q24 0 40 16l50 50q17 17 17 38v496q0 21 -17 38l-50 50q-16 16 -40 16h-250q-25 0 -41 -16l-50 -50q-16 -16 -16 -38v-496zM333 1469l104 96l229 -272l-82 -76z" />
<glyph unicode="&#xf3;" horiz-adv-x="997" d="M90 253v518q0 40 11 66.5t39 54.5l82 82q28 28 54 39t66 11h315q40 0 66.5 -11t54.5 -39l81 -82q28 -28 39 -54.5t11 -66.5v-518q0 -40 -11 -66.5t-39 -54.5l-81 -82q-28 -28 -54.5 -39t-66.5 -11h-315q-40 0 -66 11t-54 39l-82 82q-28 28 -39 54.5t-11 66.5zM268 264 q0 -22 16 -38l50 -50q16 -16 41 -16h250q24 0 40 16l50 50q17 17 17 38v496q0 21 -17 38l-50 50q-16 16 -40 16h-250q-25 0 -41 -16l-50 -50q-16 -16 -16 -38v-496zM333 1293l230 272l104 -96l-252 -252z" />
<glyph unicode="&#xf4;" horiz-adv-x="997" d="M90 253v518q0 40 11 66.5t39 54.5l82 82q28 28 54 39t66 11h315q40 0 66.5 -11t54.5 -39l81 -82q28 -28 39 -54.5t11 -66.5v-518q0 -40 -11 -66.5t-39 -54.5l-81 -82q-28 -28 -54.5 -39t-66.5 -11h-315q-40 0 -66 11t-54 39l-82 82q-28 28 -39 54.5t-11 66.5zM201 1293 l229 270h140l228 -270l-82 -76l-216 216l-217 -216zM268 264q0 -22 16 -38l50 -50q16 -16 41 -16h250q24 0 40 16l50 50q17 17 17 38v496q0 21 -17 38l-50 50q-16 16 -40 16h-250q-25 0 -41 -16l-50 -50q-16 -16 -16 -38v-496z" />
<glyph unicode="&#xf5;" horiz-adv-x="997" d="M90 253v518q0 40 11 66.5t39 54.5l81 82q28 28 54.5 39t66.5 11h315q40 0 66.5 -11t54.5 -39l81 -82q28 -28 39 -54.5t11 -66.5v-518q0 -40 -11 -66.5t-39 -54.5l-81 -82q-28 -28 -54.5 -39t-66.5 -11h-315q-40 0 -66.5 11t-54.5 39l-81 82q-28 28 -39 54.5t-11 66.5z M152 1377q3 5 20.5 30.5t27.5 39.5t31 38t38 38t40.5 26t46.5 14q9 1 26 1q35 0 66 -14.5t84 -56.5q73 -57 107 -57q27 0 55.5 25.5t73.5 87.5l79 -52q-79 -188 -206 -188q-57 0 -121 44q-24 17 -51.5 37.5t-38 28t-23.5 13t-25 5.5q-10 0 -27 -3q-55 -12 -118 -116z M268 264q0 -22 16 -38l50 -50q16 -16 41 -16h250q24 0 40 16l50 50q17 17 17 38v496q0 21 -17 38l-50 50q-16 16 -40 16h-250q-25 0 -41 -16l-50 -50q-16 -16 -16 -38v-496z" />
<glyph unicode="&#xf6;" horiz-adv-x="997" d="M90 253v518q0 40 11 66.5t39 54.5l82 82q28 28 54 39t66 11h315q40 0 66.5 -11t54.5 -39l81 -82q28 -28 39 -54.5t11 -66.5v-518q0 -40 -11 -66.5t-39 -54.5l-81 -82q-28 -28 -54.5 -39t-66.5 -11h-315q-40 0 -66 11t-54 39l-82 82q-28 28 -39 54.5t-11 66.5zM248 1326 v143h153v-143h-153zM268 264q0 -22 16 -38l50 -50q16 -16 41 -16h250q24 0 40 16l50 50q17 17 17 38v496q0 21 -17 38l-50 50q-16 16 -40 16h-250q-25 0 -41 -16l-50 -50q-16 -16 -16 -38v-496zM599 1326v143h153v-143h-153z" />
<glyph unicode="&#xf7;" horiz-adv-x="1087" d="M81 508v182h930v-182h-930zM432 127v225h227v-225h-227zM432 847v225h227v-225h-227z" />
<glyph unicode="&#xf8;" horiz-adv-x="997" d="M90 253v518q0 40 11 66.5t39 54.5l82 82q28 28 54 39t66 11h250l34 104h151l-41 -122q23 -13 42 -32l81 -82q28 -28 39 -54.5t11 -66.5v-518q0 -40 -11 -66.5t-39 -54.5l-81 -82q-28 -28 -54.5 -39t-66.5 -11h-251l-35 -104h-150l40 122q-18 11 -39 32l-82 82 q-28 28 -39 54.5t-11 66.5zM268 264q0 -22 16 -38l34 -34l222 672h-165q-25 0 -41 -16l-50 -50q-16 -16 -16 -38v-496zM458 160h167q24 0 40 16l50 50q17 17 17 38v496q0 21 -17 38l-35 36z" />
<glyph unicode="&#xf9;" horiz-adv-x="1028" d="M111 253v771h177v-760q0 -21 17 -38l49 -50q16 -16 41 -16h75q20 0 34 7l238 112v745h177v-1024h-156l-17 100l-166 -77q-49 -23 -104 -23h-114q-40 0 -66 11t-54 39l-82 82q-28 28 -38.5 54.5t-10.5 66.5zM347 1469l104 96l230 -272l-82 -76z" />
<glyph unicode="&#xfa;" horiz-adv-x="1028" d="M111 253v771h177v-760q0 -21 17 -38l49 -50q16 -16 41 -16h75q20 0 34 7l238 112v745h177v-1024h-156l-17 100l-166 -77q-49 -23 -104 -23h-114q-40 0 -66 11t-54 39l-82 82q-28 28 -38.5 54.5t-10.5 66.5zM347 1293l230 272l104 -96l-252 -252z" />
<glyph unicode="&#xfb;" horiz-adv-x="1028" d="M111 253v771h177v-760q0 -21 17 -38l49 -50q16 -16 41 -16h75q20 0 34 7l238 112v745h177v-1024h-156l-17 100l-166 -77q-49 -23 -104 -23h-114q-40 0 -66 11t-54 39l-82 82q-28 28 -38.5 54.5t-10.5 66.5zM216 1293l228 270h140l229 -270l-83 -76l-216 216l-216 -216z " />
<glyph unicode="&#xfc;" horiz-adv-x="1028" d="M111 253v771h177v-760q0 -21 17 -38l49 -50q16 -16 41 -16h75q20 0 34 7l238 112v745h177v-1024h-156l-17 100l-166 -77q-49 -23 -104 -23h-114q-40 0 -66 11t-54 39l-82 82q-28 28 -38.5 54.5t-10.5 66.5zM262 1326v143h153v-143h-153zM613 1326v143h153v-143h-153z" />
<glyph unicode="&#xfd;" horiz-adv-x="1005" d="M37 988l77 36h97l280 -864h21l285 864h95l78 -36l-345 -1004q-12 -31 -19 -48.5t-26.5 -58t-39 -67t-52.5 -62.5t-69.5 -60t-88 -44.5t-110.5 -28.5l-25 143q102 17 150.5 62t79.5 123l19 57h-67zM337 1300l230 272l104 -96l-252 -251z" />
<glyph unicode="&#xfe;" horiz-adv-x="1103" d="M131 -367v1801h177v-506l162 75q49 23 104 23h108q40 0 66.5 -11t54.5 -39l81 -81q28 -28 39 -54.5t11 -66.5v-521q0 -40 -11 -66.5t-39 -54.5l-81 -82q-28 -28 -54.5 -39t-66.5 -11h-374v-317l-50 -50h-127zM308 159h341q25 0 41 16l50 50q17 17 17 39v498q0 22 -17 39 l-50 50q-16 16 -40 16h-70q-18 0 -33 -7l-239 -113v-588z" />
<glyph unicode="&#xff;" horiz-adv-x="1005" d="M37 988l77 36h97l280 -864h21l285 864h95l78 -36l-345 -1004q-12 -31 -19 -48.5t-26.5 -58t-39 -67t-52.5 -62.5t-69.5 -60t-88 -44.5t-110.5 -28.5l-25 143q102 17 150.5 62t79.5 123l19 57h-67zM252 1333v143h153v-143h-153zM603 1333v143h153v-143h-153z" />
<glyph unicode="&#x152;" horiz-adv-x="1980" d="M132 341v751q0 41 11 68t39 55l169 168q29 29 55.5 40t66.5 11h414q40 0 66.5 -11t55.5 -40l81 -81q3 6 22 25l56 56q29 29 55.5 40t66.5 11h545l64 -64v-115h-564q-25 0 -40 -15l-50 -51q-17 -17 -17 -38v-345h558v-178h-558v-346q0 -21 17 -38l50 -50q16 -16 40 -16 h564v-115l-64 -63h-545q-40 0 -66.5 11t-55.5 40l-56 55q-18 18 -22 26l-81 -81q-29 -29 -55.5 -40t-66.5 -11h-414q-40 0 -66.5 11t-55.5 40l-169 168q-28 28 -39 54.5t-11 67.5zM324 368q0 -21 17 -38l137 -136q16 -16 40 -16h324q23 0 39 16l138 136q17 15 17 37v699 q0 22 -17 37l-138 137q-15 15 -39 15h-324q-25 0 -40 -15l-137 -137q-17 -17 -17 -38v-697z" />
<glyph unicode="&#x153;" horiz-adv-x="1599" d="M90 253v518q0 40 11 66.5t39 54.5l81 82q28 28 54.5 39t66.5 11h315q40 0 66.5 -11t54.5 -39l42 -43l43 43q28 28 54 39t66 11h290q40 0 66 -11t54 -39l82 -82q28 -28 39 -54.5t11 -66.5v-276l-51 -51h-565v-180q0 -22 17 -39l50 -49q16 -16 40 -16h224q25 0 41 16l65 65 l120 -118l-73 -73q-28 -28 -54 -39t-66 -11h-290q-40 0 -66 11t-54 39l-43 43l-42 -43q-28 -28 -54.5 -39t-66.5 -11h-315q-40 0 -66.5 11t-54.5 39l-81 82q-28 28 -39 54.5t-11 66.5zM268 264q0 -22 16 -38l50 -50q16 -16 41 -16h250q24 0 40 16l50 50q17 17 17 36v500 q0 19 -17 36l-50 50q-16 16 -40 16h-250q-25 0 -41 -16l-50 -50q-16 -16 -16 -38v-496zM909 603h439v157q0 21 -17 38l-50 50q-16 16 -41 16h-224q-24 0 -40 -16l-50 -49q-17 -17 -17 -39v-157z" />
<glyph unicode="&#x178;" horiz-adv-x="1193" d="M47 1384l105 50h80l320 -764h92l319 764h80l106 -50l-387 -889h-69v-495h-190v495h-69zM346 1735v143h153v-143h-153zM697 1735v143h153v-143h-153z" />
<glyph unicode="&#x2c6;" horiz-adv-x="780" d="M92 1292l229 270h140l228 -270l-82 -76l-216 216l-217 -216z" />
<glyph unicode="&#x2dc;" horiz-adv-x="886" d="M95 1379q3 5 20.5 30.5t27.5 39.5t31 38t38 38t40.5 26t46.5 14q18 2 26 2q35 0 66.5 -15t84.5 -57q72 -56 107 -56q27 0 55.5 25.5t73.5 87.5l78 -52q-79 -188 -205 -188q-59 0 -122 43q-25 18 -51.5 38t-37.5 28t-23.5 13.5t-24.5 5.5q-6 0 -28 -4q-54 -12 -117 -115z " />
<glyph unicode="&#x2000;" horiz-adv-x="1020" />
<glyph unicode="&#x2001;" horiz-adv-x="2040" />
<glyph unicode="&#x2002;" horiz-adv-x="1020" />
<glyph unicode="&#x2003;" horiz-adv-x="2040" />
<glyph unicode="&#x2004;" horiz-adv-x="680" />
<glyph unicode="&#x2005;" horiz-adv-x="510" />
<glyph unicode="&#x2006;" horiz-adv-x="340" />
<glyph unicode="&#x2007;" horiz-adv-x="340" />
<glyph unicode="&#x2008;" horiz-adv-x="255" />
<glyph unicode="&#x2009;" horiz-adv-x="408" />
<glyph unicode="&#x200a;" horiz-adv-x="113" />
<glyph unicode="&#x2010;" horiz-adv-x="839" d="M84 510v182h673v-182h-673z" />
<glyph unicode="&#x2011;" horiz-adv-x="839" d="M84 510v182h673v-182h-673z" />
<glyph unicode="&#x2012;" horiz-adv-x="839" d="M84 510v182h673v-182h-673z" />
<glyph unicode="&#x2013;" horiz-adv-x="974" d="M82 510v182h815v-182h-815z" />
<glyph unicode="&#x2014;" horiz-adv-x="1331" d="M77 510v182h1179v-182h-1179z" />
<glyph unicode="&#x2018;" horiz-adv-x="442" d="M89 1189v148q0 62 26 117l56 120h166l-79 -171h58v-214h-227z" />
<glyph unicode="&#x2019;" horiz-adv-x="442" d="M104 1189l79 171h-58v214h227v-148q0 -62 -26 -117l-56 -120h-166z" />
<glyph unicode="&#x201a;" horiz-adv-x="442" d="M106 -186l79 172h-58v213h227v-148q0 -61 -26 -117l-57 -120h-165z" />
<glyph unicode="&#x201c;" horiz-adv-x="759" d="M85 1189v148q0 61 26 117l56 120h166l-79 -171h57v-214h-226zM411 1189v148q0 61 26 117l56 120h166l-79 -171h57v-214h-226z" />
<glyph unicode="&#x201d;" horiz-adv-x="749" d="M103 1189l79 171h-57v214h226v-148q0 -61 -26 -117l-56 -120h-166zM429 1189l79 171h-57v214h226v-148q0 -61 -26 -117l-56 -120h-166z" />
<glyph unicode="&#x201e;" horiz-adv-x="757" d="M102 -186l79 172h-58v213h227v-148q0 -58 -27 -117l-56 -120h-165zM426 -186l80 172h-58v213h227v-148q0 -58 -27 -117l-56 -120h-166z" />
<glyph unicode="&#x2022;" horiz-adv-x="542" d="M87 407v365h371v-365h-371z" />
<glyph unicode="&#x2026;" horiz-adv-x="1110" d="M80 -57v224h227v-224h-227zM442 -57v224h227v-224h-227zM805 -57v224h227v-224h-227z" />
<glyph unicode="&#x202f;" horiz-adv-x="408" />
<glyph unicode="&#x2039;" horiz-adv-x="663" d="M86 428v220l384 358l108 -108l-296 -360l296 -361l-108 -108z" />
<glyph unicode="&#x203a;" horiz-adv-x="663" d="M88 177l296 361l-296 360l108 108l383 -358v-220l-383 -359z" />
<glyph unicode="&#x205f;" horiz-adv-x="510" />
<glyph unicode="&#x20ac;" horiz-adv-x="1157" d="M82 454v175h136v125h-136v175h136v195q0 40 11 66.5t39 54.5l82 82q28 28 54.5 39t66.5 11h545l62 -62v-113h-562q-25 0 -41 -16l-51 -50q-16 -16 -16 -39v-168h474v-113l-62 -62h-412v-125h420v-113l-63 -62h-357v-171q0 -23 16 -39l51 -50q16 -16 41 -16h562v-113 l-62 -62h-545q-40 0 -66.5 11t-54.5 39l-82 82q-28 28 -39 54.5t-11 66.5v198h-136z" />
<glyph unicode="&#x2122;" horiz-adv-x="1802" d="M72 1309v82l44 43h556l43 -43v-82h-255v-759h-133v759h-255zM809 550v841l44 43h192l216 -720h18l217 720h193l43 -43v-841h-133v700h-39l-210 -700h-159l-209 700h-39v-700h-134z" />
<glyph unicode="&#x25fc;" horiz-adv-x="1024" d="M0 0v1024h1024v-1024h-1024z" />
<glyph unicode="&#xfb01;" horiz-adv-x="1032" d="M35 865v110l50 49h107v170q0 40 11 66.5t39 54.5l81 81q28 28 54.5 39t66.5 11h98l51 -49v-110h-116q-25 0 -41 -16l-50 -50q-17 -17 -17 -39v-158h204v-159h-204v-873h-177v873h-157zM718 1176v203h205v-203h-205zM732 0v1024h177v-1024h-177z" />
<glyph unicode="&#xfb02;" horiz-adv-x="1183" d="M35 865v110l50 49h107v170q0 40 11 66.5t39 54.5l81 81q28 28 54.5 39t66.5 11h98l51 -49v-110h-116q-25 0 -41 -16l-50 -50q-17 -17 -17 -39v-158h204v-159h-204v-873h-177v873h-157zM751 253v1165l51 50h127v-1204q0 -22 16 -38l52 -51q16 -16 39 -16h112v-159h-145 q-39 0 -65 11t-55 39l-74 73q-33 32 -45.5 60t-12.5 70z" />
</font>
</defs>
</svg>
