<?xml version="1.0" standalone="no"?>
<!DOCTYPE svg PUBLIC "-//W3C//DTD SVG 1.1//EN" "http://www.w3.org/Graphics/SVG/1.1/DTD/svg11.dtd" >
<svg xmlns="http://www.w3.org/2000/svg">
<metadata></metadata>
<defs>
<font id="bordabold" horiz-adv-x="1288" >
<font-face units-per-em="2048" ascent="1638" descent="-410" />
<missing-glyph horiz-adv-x="614" />
<glyph horiz-adv-x="0" />
<glyph horiz-adv-x="682" />
<glyph unicode=" "  horiz-adv-x="614" />
<glyph unicode="&#x09;" horiz-adv-x="614" />
<glyph unicode="&#xa0;" horiz-adv-x="614" />
<glyph unicode="!" horiz-adv-x="419" d="M76 0v263h269v-263h-269zM90 1006v428h240v-427l-18 -651h-203z" />
<glyph unicode="&#x22;" horiz-adv-x="722" d="M74 1338v226h240v-226l-21 -267h-199zM410 1338v226h240v-226l-20 -267h-199z" />
<glyph unicode="#" horiz-adv-x="1314" d="M69 464v143l65 63h196l36 170h-297v144l65 63h276l82 387h230l-82 -387h186l82 387h230l-82 -387h190v-207h-234l-36 -170h270v-206h-314l-99 -464h-230l99 464h-186l-98 -464h-230l98 464h-217zM560 670h186l36 170h-186z" />
<glyph unicode="$" horiz-adv-x="1101" d="M71 65v150h403v442l-306 156q-51 26 -74 64t-23 97v117q0 54 15 90.5t52 73.5l111 111q39 39 73.5 53.5t87.5 14.5h64v93h156v-93h274l67 -66v-149h-341v-396l254 -129q149 -76 149 -223v-122q0 -55 -19.5 -98.5t-65.5 -89.5l-83 -83q-78 -78 -204 -78h-31v-92h-156v92 h-335zM304 1010q0 -21 22 -33l148 -76v318h-32q-25 0 -39 -16l-83 -84q-16 -16 -16 -37v-72zM630 215h31q24 0 39 15l83 83q17 17 17 36v119q0 22 -22 34l-148 76v-363z" />
<glyph unicode="%" horiz-adv-x="1320" d="M73 938v286q0 43 32 75l45 45q31 31 76 31h174q45 0 76 -31l45 -45q31 -31 31 -75v-286q0 -44 -31 -75l-45 -45q-31 -31 -76 -31h-174q-45 0 -76 31l-45 45q-32 32 -32 75zM145 -33l859 1500h181l-860 -1500h-180zM213 949q0 -10 6 -16l19 -19q6 -6 14 -6h122q8 0 14 6 l19 19q5 5 5 16v265q0 10 -5 15l-19 19q-7 7 -14 7h-122q-7 0 -14 -7l-19 -19q-6 -6 -6 -15v-265zM771 200v286q0 44 31 75l45 45q31 31 76 31h175q44 0 75 -31l45 -45q32 -32 32 -75v-286q0 -43 -32 -75l-45 -45q-31 -31 -75 -31h-175q-45 0 -76 31l-45 45q-31 31 -31 75z M911 210q0 -10 6 -15l18 -19q6 -6 14 -6h123q7 0 13 6l19 19q6 6 6 16v264q0 10 -6 16l-19 19q-6 6 -13 6h-123q-8 0 -14 -6l-18 -19q-6 -6 -6 -16v-265z" />
<glyph unicode="&#x26;" horiz-adv-x="1280" d="M69 269v125q0 44 13 75.5t44 62.5l232 233l-143 148q-31 32 -44 63t-13 74v108q0 44 13 75t45 63l79 79q57 57 138 57h167q81 0 138 -57l79 -79q32 -32 45 -63t13 -75v-108q0 -43 -12.5 -72.5t-41.5 -61.5l-153 -154l269 -281l170 169l106 -106v-101l-123 -122l123 -127 v-118l-98 -98l-181 187l-113 -112q-57 -57 -138 -57h-340q-81 0 -138 57l-79 79q-32 32 -44.5 62.5t-12.5 74.5zM301 284q0 -14 11 -25l42 -42q11 -11 26 -11h266q15 0 26 11l109 108l-270 280l-199 -200q-11 -11 -11 -26v-95zM390 1065q0 -14 11 -25l113 -118l118 118 q11 11 11 25v78q0 14 -11 25l-43 43q-10 10 -26 10h-93q-17 0 -27 -10l-42 -43q-11 -11 -11 -25v-78z" />
<glyph unicode="'" horiz-adv-x="391" d="M76 1338v226h240v-226l-21 -267h-199z" />
<glyph unicode="(" horiz-adv-x="628" d="M75 111v1136q0 44 12.5 74.5t43.5 60.5l164 163q31 31 61 43t74 12h128v-218h-81q-16 0 -27 -11l-128 -127q-11 -11 -11 -26v-1077q0 -15 11 -26l130 -129q11 -9 25 -9h81v-219h-128q-44 0 -74 13.5t-61 44.5l-139 135q-47 44 -64 76.5t-17 83.5z" />
<glyph unicode=")" horiz-adv-x="628" d="M75 -23h80q14 0 27 11l128 127q11 11 11 26v1077q0 15 -11 26l-128 127q-11 11 -27 11h-80v218h127q45 0 75 -12t61 -43l163 -163q31 -31 44 -61t13 -74v-1136q0 -51 -17.5 -83t-64.5 -77l-138 -135q-31 -31 -61.5 -44.5t-74.5 -13.5h-127v219z" />
<glyph unicode="*" horiz-adv-x="1021" d="M71 873l179 103l95 45l-95 45l-179 104l93 162l183 -105l80 -55l-8 98v207h190v-207l-8 -97l78 54l182 105l93 -162l-179 -103l-95 -46l95 -45l179 -103l-93 -162l-182 105l-78 54l8 -97v-207h-190v207l8 98l-80 -55l-183 -105z" />
<glyph unicode="+" horiz-adv-x="1089" d="M71 488v222h357v363h235v-363h358v-222h-358v-363h-235v363h-357z" />
<glyph unicode="," horiz-adv-x="468" d="M100 -188l81 172h-55v245h269v-166q0 -67 -27 -122l-61 -129h-207z" />
<glyph unicode="-" horiz-adv-x="845" d="M74 490v222h701v-222h-701z" />
<glyph unicode="." horiz-adv-x="419" d="M76 -76v262h269v-262h-269z" />
<glyph unicode="/" horiz-adv-x="858" d="M76 0l471 1434h238l-471 -1434h-238z" />
<glyph unicode="0" horiz-adv-x="999" d="M65 271v837q0 44 13 74.5t44 61.5l79 79q31 31 61.5 43.5t74.5 12.5h327q44 0 75 -12.5t62 -43.5l79 -79q31 -31 43.5 -61.5t12.5 -74.5v-837q0 -44 -12.5 -74.5t-43.5 -61.5l-79 -79q-31 -31 -62 -43.5t-75 -12.5h-327q-44 0 -74.5 12.5t-61.5 43.5l-79 79 q-31 31 -44 61.5t-13 74.5zM293 285q0 -14 11 -25l43 -43q11 -11 26 -11h255q16 0 27 11l43 43q11 11 11 25v809q0 15 -11 26l-44 43q-10 10 -26 10h-255q-16 0 -26 -10l-43 -43q-11 -11 -11 -26v-809z" />
<glyph unicode="1" horiz-adv-x="647" d="M27 1164l45 96l319 119h117l77 -76v-1305h-228v1132l-281 -104z" />
<glyph unicode="2" horiz-adv-x="1038" d="M63 -2v417q0 148 150 224l481 246q22 11 22 33v123q0 19 -15 34l-82 84q-13 14 -37 14h-198q-23 0 -36 -14l-119 -122l-157 156l117 117q39 39 74.5 54t88.5 15h262q54 0 89 -15t74 -54l100 -100q37 -38 52 -74.5t15 -91.5v-146q0 -130 -87 -174l-542 -275 q-23 -12 -23 -34v-210h706v-139l-69 -68h-866z" />
<glyph unicode="3" horiz-adv-x="972" d="M31 143l153 153l81 -81q11 -11 26 -11h309q15 0 26 11l44 43q10 10 10 26v257q0 15 -10 25l-94 93q-11 11 -26 11h-349v206h367q16 0 27 11l65 67q11 11 11 26v114q0 15 -11 26l-43 43q-10 10 -27 10h-289q-16 0 -26 -10l-81 -81l-154 153l88 88q31 31 62 43.5t75 12.5 h362q44 0 74.5 -12.5t61.5 -43.5l79 -79q31 -31 43.5 -61t12.5 -74v-144q0 -43 -12.5 -73t-43.5 -62l-64 -66l74 -73q31 -31 43.5 -61.5t12.5 -74.5v-286q0 -44 -12.5 -74t-43.5 -61l-79 -79q-57 -57 -137 -57h-381q-79 0 -136 57z" />
<glyph unicode="4" horiz-adv-x="1021" d="M33 375v99l466 905h242l76 -76v-798h175v-130l-76 -76h-99v-301h-227v301h-480zM303 505h287v551z" />
<glyph unicode="5" horiz-adv-x="948" d="M67 142l153 154l80 -81q10 -10 27 -10h255q16 0 26 10l43 43q11 11 11 26v260q0 15 -11 26l-43 43q-10 10 -26 10h-412l-103 104l80 578l74 74h553l76 -76v-130h-489l-48 -344h305q44 0 74.5 -12.5t61.5 -43.5l79 -79q32 -32 44.5 -62t12.5 -73v-290q0 -43 -12.5 -73 t-44.5 -62l-79 -79q-57 -57 -136 -57h-327q-80 0 -137 57z" />
<glyph unicode="6" horiz-adv-x="960" d="M64 277v831q0 44 13 74.5t44 61.5l79 79q31 31 61.5 43.5t74.5 12.5h327q44 0 74.5 -12.5t61.5 -43.5l88 -88l-153 -154l-81 81q-11 11 -26 11h-255q-15 0 -26 -11l-43 -43q-11 -11 -11 -25v-275l117 55q54 25 113 25h105q43 0 73 -12.5t63 -45.5l79 -79q56 -56 56 -141 v-344q0 -85 -56 -141l-79 -78q-33 -34 -63 -46t-73 -12h-291q-43 0 -73 12t-63 45l-79 79q-57 57 -57 141zM292 282q0 -13 11 -24l41 -41q10 -10 26 -10h222q16 0 26 10l42 41q11 11 11 24v336q0 14 -11 25l-41 41q-10 10 -27 10h-66q-8 0 -18 -4l-216 -101v-307z" />
<glyph unicode="7" horiz-adv-x="833" d="M29 1171v132l75 76h625l76 -76v-74l-376 -1231h-231l351 1173h-520z" />
<glyph unicode="8" horiz-adv-x="999" d="M65 271v286q0 43 12.5 73t44.5 62l37 37l-28 27q-31 32 -43.5 62.5t-12.5 73.5v216q0 44 12.5 74.5t43.5 61.5l79 79q31 31 62 43.5t75 12.5h308q44 0 74.5 -12.5t61.5 -43.5l79 -79q31 -31 43.5 -61.5t12.5 -74.5v-216q0 -44 -12.5 -75t-43.5 -61l-28 -27l38 -37 q31 -31 43.5 -61t12.5 -74v-286q0 -44 -12.5 -74t-43.5 -61l-79 -79q-31 -31 -62 -43.5t-75 -12.5h-327q-44 0 -74.5 12.5t-61.5 43.5l-79 79q-32 32 -44.5 62t-12.5 73zM293 286q0 -15 11 -26l43 -43q10 -10 26 -10h255q17 0 27 10l43 43q11 11 11 26v256q0 15 -11 26 l-43 43q-10 10 -26 10h-257q-15 0 -25 -10l-43 -43q-11 -11 -11 -26v-256zM302 906q0 -14 11 -25l43 -43q11 -11 26 -11h238q14 0 25 11l43 43q11 11 11 25v188q0 15 -11 26l-43 43q-10 10 -26 10h-236q-16 0 -26 -10l-44 -44q-11 -11 -11 -25v-188z" />
<glyph unicode="9" horiz-adv-x="960" d="M64 787v314q0 84 57 141l79 78q33 33 63 46t73 13h291q43 0 73 -13t63 -46l79 -79q56 -56 56 -140v-832q0 -44 -12.5 -74t-43.5 -61l-80 -80q-30 -30 -60 -42t-75 -12h-328q-45 0 -75 12.5t-61 42.5l-88 88l153 153l81 -81q10 -10 27 -10h254q17 0 27 10l43 43 q11 11 11 26v304l-118 -54q-56 -26 -112 -26h-105q-43 0 -73 13t-63 46l-79 79q-57 57 -57 141zM292 790q0 -14 11 -25l41 -41q10 -10 26 -10h66q9 0 19 4l216 101v277q0 13 -11 24l-42 41q-10 10 -26 10h-222q-16 0 -26 -10l-41 -41q-11 -11 -11 -25v-305z" />
<glyph unicode=":" horiz-adv-x="419" d="M76 -25v264h269v-264h-269zM76 785v263h269v-263h-269z" />
<glyph unicode=";" horiz-adv-x="468" d="M100 -188l81 172h-55v245h269v-166q0 -67 -27 -122l-61 -129h-207zM126 775v263h269v-263h-269z" />
<glyph unicode="&#x3c;" horiz-adv-x="1132" d="M71 417v241l906 438l84 -200l-706 -340v-37l706 -341l-84 -198z" />
<glyph unicode="=" horiz-adv-x="1089" d="M72 304v222h950v-222h-950zM72 670v222h950v-222h-950z" />
<glyph unicode="&#x3e;" horiz-adv-x="1132" d="M73 178l706 341v37l-706 340l84 200l906 -438v-241l-906 -437z" />
<glyph unicode="?" horiz-adv-x="993" d="M75 1247l118 118q40 40 75 54.5t88 14.5h236q54 0 89.5 -15t74.5 -54l100 -101q38 -38 52.5 -74.5t14.5 -91.5v-152q0 -132 -87 -175l-224 -113q-24 -13 -24 -38v-263h-229v271q0 147 150 225l163 84q22 12 22 34v123q0 19 -14 33l-82 83q-14 14 -38 14h-172 q-23 0 -37 -14l-119 -119zM340 0v263h269v-263h-269z" />
<glyph unicode="@" horiz-adv-x="1468" d="M75 77v731q0 66 48 114l154 153q47 47 115 47h687q67 0 114 -47l154 -153q48 -48 48 -114v-447q1 -67 -47 -115l-154 -152q-48 -48 -115 -48h-217l-7 39l-36 -17q-45 -22 -97 -22h-117q-63 0 -108 45l-59 59q-45 45 -45 107v81q0 64 45 107l67 67q46 44 108 44h233v58 q0 11 -9 20l-34 34q-9 9 -21 9h-348v116l53 52h326q64 0 108 -44l66 -67q43 -43 45 -106v-408h37q17 0 26 11l102 124q10 10 10 25v409q0 14 -7 21l-134 131q-11 11 -25 11h-611q-15 0 -25 -10l-133 -131q-10 -10 -10 -23v-689q0 -14 11 -25l133 -131q9 -9 21 -9h604v-172 h-639q-68 0 -115 50l-154 151q-48 48 -48 114zM579 271q0 -13 8 -21l28 -27q8 -8 21 -8h81q12 0 20 4l109 51v118h-202q-12 0 -21 -9l-36 -35q-8 -8 -8 -20v-53z" />
<glyph unicode="A" d="M36 58l443 1376h330l443 -1376l-125 -58h-102l-139 442h-483l-140 -442h-102zM471 657h347l-166 531h-15z" />
<glyph unicode="B" horiz-adv-x="1228" d="M163 0v1359l75 75h578q43 0 73.5 -12.5t61.5 -43.5l79 -79q31 -31 43 -60t12 -73v-285q0 -65 -30 -106l-14 -15q-3 -3 -3 -8q0 -3 4 -7l52 -52q31 -31 43 -60t12 -73v-292q0 -44 -12 -73.5t-43 -60.5l-80 -79q-31 -31 -60.5 -43t-73.5 -12h-717zM396 215h438q16 0 27 11 l45 44q11 11 11 27v234q0 15 -11 26l-45 45q-11 11 -27 11h-438v-398zM396 828h374q16 0 27 11l45 45q11 11 11 26v227q0 15 -11 26l-45 45q-11 11 -27 11h-374v-391z" />
<glyph unicode="C" horiz-adv-x="1200" d="M125 351v731q0 43 12.5 73.5t42.5 60.5l164 163q31 30 61 42.5t73 12.5h352q43 0 73 -12.5t61 -42.5l172 -171l-162 -163l-164 163q-11 11 -27 11h-258q-16 0 -27 -11l-129 -128q-12 -10 -12 -27v-673q0 -16 12 -26l129 -128q11 -11 27 -11h258q16 0 27 11l164 162 l162 -162l-172 -171q-31 -30 -61 -42.5t-73 -12.5h-352q-43 0 -73 12.5t-61 42.5l-164 163q-31 31 -43 60.5t-12 72.5z" />
<glyph unicode="D" horiz-adv-x="1296" d="M164 0v1359l74 75h583q43 0 73.5 -12.5t61.5 -42.5l163 -163q31 -31 43.5 -61t12.5 -73v-731q0 -43 -12.5 -72.5t-43.5 -60.5l-163 -163q-31 -30 -61.5 -42.5t-73.5 -12.5h-657zM397 215h378q16 0 27 11l129 128q12 10 12 26v673q0 17 -12 27l-129 128q-11 11 -27 11 h-378v-1004z" />
<glyph unicode="E" horiz-adv-x="1105" d="M150 268v898q0 44 12 73t43 60l79 79q31 31 61.5 43.5t73.5 12.5h538l74 -75v-140h-566q-16 0 -27 -11l-45 -45q-11 -11 -11 -26v-313h540v-215h-540v-312q0 -15 11 -26l45 -45q11 -11 27 -11h566v-141l-74 -74h-538q-44 0 -74 12t-61 43l-79 79q-31 31 -43 60.5 t-12 73.5z" />
<glyph unicode="F" horiz-adv-x="1079" d="M159 2v1164q0 43 12.5 72.5t43.5 60.5l79 80q31 31 60.5 43t73.5 12h502l74 -74v-141h-529q-17 0 -28 -11l-44 -45q-11 -11 -11 -26v-349h503v-215h-503v-571h-233z" />
<glyph unicode="G" horiz-adv-x="1251" d="M124 351v733q0 43 12.5 73t43.5 61l164 162q54 54 116 54h2h365q43 0 73 -13t61 -43l172 -171l-162 -162l-165 164q-14 14 -31 12h-250q-16 0 -27 -11l-130 -129q-11 -10 -11 -26v-675q0 -16 11 -26l132 -130q13 -13 31 -11h249q16 0 27 11l129 128q12 11 12 27v220h-314 v141l74 74h472v-464q0 -43 -12.5 -73t-43.5 -61l-163 -163q-53 -53 -114 -53h-6h-363q-43 0 -73 12.5t-61 42.5l-164 163q-31 31 -43.5 60.5t-12.5 72.5z" />
<glyph unicode="H" horiz-adv-x="1388" d="M165 0v1359l75 75h158v-586h594v511l74 75h159v-1434h-233v633h-594v-633h-233z" />
<glyph unicode="I" horiz-adv-x="514" d="M141 0v1359l74 75h158v-1434h-232z" />
<glyph unicode="J" horiz-adv-x="659" d="M25 -35h173q18 0 28 12l43 42q11 13 11 26v1159h-255v140l75 75h412v-1400q0 -44 -12 -72t-41 -60l-81 -80q-30 -30 -60.5 -43.5t-74.5 -13.5h-218v215z" />
<glyph unicode="K" horiz-adv-x="1208" d="M165 0v1359l75 75h158v-586l517 586h97l102 -102l-503 -581l563 -650l-102 -101h-97l-513 579l-64 -72v-507h-233z" />
<glyph unicode="L" horiz-adv-x="1038" d="M159 74v1285l74 75h159v-1219h610v-215h-769z" />
<glyph unicode="M" horiz-adv-x="1796" d="M151 0v1359l74 74h328l330 -1180h31l329 1180h328l74 -74v-1359h-232v1151h-24l-347 -1151h-288l-344 1151h-26v-1151h-233z" />
<glyph unicode="N" horiz-adv-x="1366" d="M155 0v1359l74 75h286l454 -1151h11v1151h233v-1360l-74 -74h-280l-459 1151h-12v-1151h-233z" />
<glyph unicode="O" horiz-adv-x="1357" d="M126 351v731q0 43 12.5 73t43.5 61l163 163q31 30 61.5 42.5t73.5 12.5h400q43 0 73 -12.5t61 -42.5l164 -163q31 -31 43.5 -61t12.5 -73v-731q0 -43 -12.5 -72.5t-43.5 -60.5l-164 -163q-31 -30 -61 -42.5t-73 -12.5h-400q-43 0 -73.5 12.5t-61.5 42.5l-163 163 q-31 31 -43.5 60.5t-12.5 72.5zM358 380q0 -16 12 -26l129 -128q11 -11 27 -11h308q16 0 27 11l129 128q11 10 11 26v673q0 17 -11 27l-129 128q-11 11 -27 11h-308q-16 0 -27 -11l-129 -129q-12 -11 -12 -26v-673z" />
<glyph unicode="P" horiz-adv-x="1202" d="M162 0v1359l74 75h598q43 0 73 -12.5t61 -43.5l80 -79q31 -31 43 -60t12 -73v-324q0 -44 -12 -73.5t-43 -60.5l-80 -79q-31 -31 -60.5 -43t-73.5 -12h-439v-574h-233zM395 789h393q16 0 27 11l45 45q11 11 11 26v266q0 15 -11 26l-45 45q-11 11 -27 11h-393v-430z" />
<glyph unicode="Q" horiz-adv-x="1400" d="M131 349v732q0 43 12.5 73t43.5 61l164 163q31 30 61 42.5t73 12.5h400q43 0 73.5 -12.5t61.5 -42.5l163 -163q31 -31 43.5 -61t12.5 -73v-732q0 -74 -46 -124l-22 -22l181 -182l-102 -99h-105l-128 130l-19 -18q-45 -36 -113 -36h-400q-43 0 -73 12.5t-61 42.5l-164 162 q-31 31 -43.5 61t-12.5 73zM364 378q0 -16 11 -26l129 -129q10 -10 27 -10h308q17 0 27 10l129 129q12 11 12 26v674q0 16 -12 27l-129 128q-11 11 -27 11h-308q-16 0 -27 -11l-129 -128q-11 -10 -11 -27v-674z" />
<glyph unicode="R" horiz-adv-x="1239" d="M165 0v1359l74 75h598q43 0 73 -12.5t61 -43.5l79 -79q31 -31 43.5 -60.5t12.5 -72.5v-290q0 -43 -12.5 -72.5t-43.5 -60.5l-79 -80q-18 -18 -38 -28l-21 -2l255 -537l-96 -96h-113l-288 610h-273v-610h-232zM397 823h393q16 0 27 11l45 45q11 11 11 26v232q0 15 -11 26 l-45 45q-11 11 -27 11h-393v-396z" />
<glyph unicode="S" horiz-adv-x="1120" d="M81 65v150h589q24 0 39 15l83 83q17 17 17 36v117q0 24 -24 36l-608 311q-50 26 -73 64t-23 97v117q0 55 14.5 91t51.5 73l111 111q39 39 73.5 53.5t87.5 14.5h494l68 -66v-149h-530q-25 0 -39 -16l-82 -84q-17 -17 -17 -37v-75q0 -20 22 -30l558 -284q149 -76 149 -222 v-122q0 -55 -19.5 -98.5t-65.5 -89.5l-83 -83q-78 -78 -204 -78h-522z" />
<glyph unicode="T" horiz-adv-x="1130" d="M43 1219v140l74 75h898l75 -75v-140h-408v-1219h-232v1219h-407z" />
<glyph unicode="U" horiz-adv-x="1341" d="M164 268v1091l75 75h158v-1137q0 -15 11 -26l45 -45q11 -11 27 -11h393q17 0 28 11l45 45q11 11 11 26v1063l74 74h158v-1166q0 -44 -12 -73.5t-43 -60.5l-79 -79q-31 -31 -61 -43t-74 -12h-486q-44 0 -74 12t-61 43l-79 79q-31 31 -43.5 61t-12.5 73z" />
<glyph unicode="V" horiz-adv-x="1296" d="M38 1376l124 58h103l361 -1219h47l361 1219h104l124 -58l-417 -1376h-391z" />
<glyph unicode="W" horiz-adv-x="1966" d="M36 1376l123 58h104l263 -1151h42l249 1151h336l247 -1151h40l266 1151h105l123 -58l-349 -1376h-328l-262 1151h-19l-264 -1151h-328z" />
<glyph unicode="X" horiz-adv-x="1148" d="M35 98l403 622l-403 615l99 99h101l343 -520l331 520h107l99 -98l-403 -624l403 -614l-99 -98h-103l-340 519l-336 -519h-103z" />
<glyph unicode="Y" horiz-adv-x="1193" d="M33 1374l128 60h100l309 -740h56l309 740h100l128 -60l-389 -895h-60v-479h-232v479h-60z" />
<glyph unicode="Z" horiz-adv-x="1173" d="M82 74v230l747 893v22h-708v140l75 75h792l75 -75v-234l-748 -895v-15h777v-141l-75 -74h-860z" />
<glyph unicode="[" horiz-adv-x="571" d="M75 -176v1639l75 75h349v-143l-76 -76h-112v-1350h111l77 -71v-148h-347z" />
<glyph unicode="\" horiz-adv-x="851" d="M76 1434h229l471 -1434h-229z" />
<glyph unicode="]" horiz-adv-x="571" d="M75 -102l77 71h110v1350h-112l-75 76v143h348l76 -75v-1639l-77 -74h-347v148z" />
<glyph unicode="^" horiz-adv-x="1265" d="M73 570l432 893h257l433 -893l-209 -88l-327 680h-51l-327 -680z" />
<glyph unicode="_" horiz-adv-x="1165" d="M70 -152h1027v-204h-1027v204z" />
<glyph unicode="`" horiz-adv-x="501" d="M71 1466l121 112l238 -281l-98 -91z" />
<glyph unicode="a" horiz-adv-x="989" d="M83 264v107q0 43 12 72t43 59l89 88q30 30 59.5 42.5t72.5 12.5h318v93q0 15 -11 26l-53 52q-11 11 -27 11h-449v136l62 61h422q43 0 72.5 -12.5t59.5 -42.5l87 -86q55 -55 55 -132v-751h-199l-10 57l-63 -30q-57 -27 -121 -27h-154q-43 0 -72.5 12.5t-59.5 42.5l-78 78 q-30 30 -42.5 59.5t-12.5 71.5zM301 278q0 -15 11 -26l44 -44q11 -11 27 -11h117q12 0 24 5l153 73v173h-284q-16 0 -27 -11l-54 -54q-11 -11 -11 -26v-79z" />
<glyph unicode="b" horiz-adv-x="1011" d="M114 263v1143l62 62h156v-525l120 56q51 24 110 24h104q43 0 72.5 -12t59.5 -42l78 -78q30 -30 42 -60t12 -72v-496q0 -42 -12 -71.5t-42 -59.5l-79 -79q-30 -29 -59 -41t-72 -12h-287q-43 0 -72.5 12t-59.5 42l-78 78q-30 30 -42.5 59.5t-12.5 71.5zM332 277 q0 -15 11 -26l44 -44q11 -11 27 -11h217q16 0 27 11l44 44q11 11 11 26v469q0 15 -11 26l-44 43q-11 11 -27 11h-62q-11 0 -23 -5l-214 -101v-443z" />
<glyph unicode="c" horiz-adv-x="909" d="M85 264v496q0 42 12 71.5t42 59.5l78 78q30 30 59.5 42.5t72.5 12.5h302q43 0 72.5 -12.5t59.5 -42.5l85 -84l-147 -147l-78 78q-11 11 -27 11h-232q-16 0 -27 -11l-44 -44q-11 -11 -11 -26v-468q0 -15 11 -26l44 -44q11 -11 27 -11h232q16 0 27 11l78 78l147 -147 l-85 -84q-30 -30 -59.5 -42.5t-72.5 -12.5h-302q-43 0 -72.5 12.5t-59.5 42.5l-78 78q-30 30 -42 59.5t-12 71.5z" />
<glyph unicode="d" horiz-adv-x="1007" d="M83 264v486q0 43 12 72.5t43 59.5l89 88q30 30 59.5 42t72.5 12h318v444h157l61 -61v-1406h-199l-10 56l-63 -30q-56 -26 -121 -26h-154q-43 0 -72.5 12t-59.5 42l-78 78q-30 30 -42.5 59.5t-12.5 71.5zM301 278q0 -15 11 -26l44 -44q11 -11 27 -11h117q12 0 24 5l153 72 v553h-284q-16 0 -27 -11l-54 -54q-11 -11 -11 -26v-458z" />
<glyph unicode="e" horiz-adv-x="960" d="M83 264v496q0 42 12.5 71.5t42.5 59.5l78 78q30 30 59.5 42.5t72.5 12.5h277q43 0 72.5 -12.5t59.5 -42.5l78 -78q30 -30 42.5 -59.5t12.5 -71.5v-273l-62 -62h-527v-147q0 -15 11 -26l43 -44q11 -11 27 -11h208q16 0 27 11l78 78l147 -146l-85 -85q-30 -30 -59.5 -42.5 t-72.5 -12.5h-277q-43 0 -72.5 12.5t-59.5 42.5l-78 78q-30 30 -42.5 59.5t-12.5 71.5zM301 621h371v126q0 14 -11 25l-44 44q-11 11 -27 11h-208q-15 0 -26 -11l-44 -44q-11 -11 -11 -26v-125z" />
<glyph unicode="f" horiz-adv-x="626" d="M23 827v136l62 61h88v146q0 42 12.5 71.5t42.5 59.5l78 78q30 30 59.5 42.5t72.5 12.5h105l62 -62v-135h-132q-16 0 -27 -11l-44 -44q-11 -11 -11 -26v-132h195v-197h-195v-827h-218v827h-150z" />
<glyph unicode="g" horiz-adv-x="995" d="M83 279v485q0 42 12 69.5t43 58.5l78 78q30 30 59.5 42t72.5 12h287q43 0 72.5 -12t59.5 -42l78 -78q30 -30 42 -60t12 -72v-856q0 -40 -11.5 -68t-39.5 -59l-90 -90q-30 -31 -60 -42.5t-72 -11.5h-421l-63 60v137h450q16 0 26 12l53 52q11 9 11 26v161l-121 -56 q-53 -25 -109 -25h-104q-43 0 -72.5 12.5t-59.5 42.5l-78 78q-55 55 -55 146zM301 278q0 -15 11 -26l44 -44q11 -11 27 -11h64q8 0 20 5l215 101v444q0 15 -11 26l-44 43q-11 11 -27 11h-217q-16 0 -27 -11l-44 -43q-11 -11 -11 -26v-469z" />
<glyph unicode="h" horiz-adv-x="1032" d="M116 0v1405l62 62h155v-524l121 56q51 24 110 24h103q43 0 72.5 -12t59.5 -42l78 -78q55 -55 55 -132v-759h-218v746q0 15 -11 26l-43 43q-11 11 -27 11h-63q-11 0 -23 -5l-214 -100v-721h-217z" />
<glyph unicode="i" horiz-adv-x="436" d="M102 1133v239h244v-239h-244zM115 0v1024h218v-1024h-218z" />
<glyph unicode="j" horiz-adv-x="444" d="M-55 -172h89q16 0 26 10l45 45q11 9 11 27v1115h218v-1131q0 -41 -12 -70t-40 -60l-81 -81q-58 -54 -132 -54h-124v199zM103 1134v238h244v-238h-244z" />
<glyph unicode="k" horiz-adv-x="1003" d="M129 0v1406l61 61h156v-759l404 316h103l101 -102l-436 -338l471 -487l-99 -97h-105l-413 442l-26 -68v-374h-217z" />
<glyph unicode="l" horiz-adv-x="559" d="M109 264v1142l62 62h156v-1190q0 -15 11 -26l45 -45q11 -11 26 -11h127v-196h-162q-42 0 -71.5 12t-60.5 42l-68 68q-36 35 -50.5 66t-14.5 76z" />
<glyph unicode="m" horiz-adv-x="1566" d="M108 0v1024h196l12 -71l100 47q51 24 109 24h110q43 0 72.5 -12.5t59.5 -42.5l50 -50l173 81q51 24 109 24h110q43 0 72.5 -12.5t59.5 -42.5l78 -78q30 -30 42 -59.5t12 -71.5v-760h-217v747q0 14 -11 25l-44 44q-11 11 -27 11h-68q-11 0 -23 -5l-184 -87v-735h-217v747 q0 14 -11 25l-44 44q-11 11 -27 11h-68q-11 0 -23 -5l-184 -87v-735h-217z" />
<glyph unicode="n" horiz-adv-x="1038" d="M114 0v1024h194l15 -85l130 61q51 24 109 24h109q43 0 73 -12.5t60 -42.5l77 -78q30 -30 42.5 -59.5t12.5 -71.5v-760h-217v747q0 13 -12 25l-43 44q-11 11 -27 11h-67q-12 0 -24 -5l-214 -101v-721h-218z" />
<glyph unicode="o" horiz-adv-x="997" d="M84 264v496q0 42 12.5 71.5t42.5 59.5l78 78q30 30 59.5 42.5t72.5 12.5h302q43 0 72.5 -12.5t59.5 -42.5l78 -78q30 -30 42 -59.5t12 -71.5v-496q0 -42 -12 -71.5t-42 -59.5l-78 -78q-30 -30 -59.5 -42.5t-72.5 -12.5h-302q-43 0 -72.5 12.5t-59.5 42.5l-78 78 q-30 30 -42.5 59.5t-12.5 71.5zM302 278q0 -15 11 -26l43 -44q11 -11 27 -11h233q16 0 27 11l44 44q11 11 11 26v469q0 14 -11 25l-44 44q-11 11 -27 11h-233q-15 0 -26 -11l-44 -44q-11 -11 -11 -25v-469z" />
<glyph unicode="p" horiz-adv-x="1021" d="M124 -369v1393h194l15 -85l130 61q51 24 109 24h104q43 0 72.5 -12t59.5 -42l78 -78q30 -30 42 -60t12 -72v-496q0 -42 -12 -71.5t-42 -59.5l-78 -78q-30 -30 -59.5 -42t-72.5 -12h-334v-308l-62 -62h-156zM342 197h299q16 0 27 11l44 44q11 11 11 26v469q0 15 -11 26 l-44 43q-11 11 -27 11h-61q-12 0 -24 -5l-214 -101v-524z" />
<glyph unicode="q" horiz-adv-x="1011" d="M83 264v496q0 77 55 132l78 78q30 30 59.5 42t72.5 12h287q43 0 72.5 -12t59.5 -42l78 -78q55 -55 55 -132v-1065l-62 -62h-156v448l-121 -57q-52 -23 -109 -23h-104q-43 0 -72.5 12t-59.5 42l-78 78q-30 30 -42.5 59.5t-12.5 71.5zM301 278q0 -15 11 -26l44 -44 q10 -10 27 -10h62q11 0 23 5l214 100v444q0 15 -11 26l-44 43q-11 11 -27 11h-217q-16 0 -27 -11l-44 -43q-11 -11 -11 -26v-469z" />
<glyph unicode="r" horiz-adv-x="681" d="M104 0v1024h184l22 -124l125 95q18 14 41.5 21t36.5 7.5t39 0.5h96v-197h-88q-16 0 -26 -7l-212 -155v-665h-218z" />
<glyph unicode="s" horiz-adv-x="888" d="M80 61v136h429q16 0 27 11l44 44q11 11 11 26v33q0 18 -17 27l-412 209q-82 42 -82 134v79q0 42 12.5 71.5t42.5 59.5l78 78q30 30 59.5 42.5t72.5 12.5h359l62 -61v-136h-387q-16 0 -27 -11l-44 -45q-10 -10 -10 -25v-25q0 -18 17 -27l375 -190q119 -61 119 -176v-60 q0 -80 -68 -148l-58 -58q-62 -62 -162 -62h-379z" />
<glyph unicode="t" horiz-adv-x="684" d="M31 827v136l62 61h88v230h218v-230h214v-197h-214v-550q0 -15 11 -26l44 -44q11 -11 27 -11h132v-136l-63 -60h-104q-43 0 -72.5 12t-59.5 42l-78 78q-30 30 -42.5 59.5t-12.5 71.5v564h-150z" />
<glyph unicode="u" horiz-adv-x="1028" d="M104 264v760h218v-746q0 -15 11 -26l43 -44q11 -11 27 -11h68q12 0 24 5l213 101v721h218v-1024h-194l-15 85l-129 -61q-51 -24 -110 -24h-109q-43 0 -72.5 12.5t-59.5 42.5l-78 78q-30 30 -42.5 59.5t-12.5 71.5z" />
<glyph unicode="v" horiz-adv-x="1071" d="M29 979l98 45h115l271 -827h47l271 827h115l98 -45l-337 -979h-341z" />
<glyph unicode="w" horiz-adv-x="1591" d="M23 974l105 50h109l194 -803h18l208 803h281l207 -803h19l194 803h108l106 -50l-269 -974h-296l-204 756h-15l-201 -756h-296z" />
<glyph unicode="x" horiz-adv-x="999" d="M29 973l110 51h115l246 -334l235 334h115l109 -51l-327 -460l339 -461l-110 -52h-116l-245 335l-245 -335h-115l-109 51l338 461z" />
<glyph unicode="y" horiz-adv-x="1005" d="M28 979l98 45h115l252 -796h16l258 796h114l98 -45l-341 -989q-117 -333 -426 -363l-30 176q102 11 145 46t73 110l14 41h-49z" />
<glyph unicode="z" horiz-adv-x="978" d="M83 61v212l578 548v6h-547v136l62 61h640l62 -61v-198l-577 -561v-7h595v-136l-62 -61h-689z" />
<glyph unicode="{" horiz-adv-x="733" d="M74 599v144l172 121v401q0 44 13 74t44 61l189 189l165 -165l-163 -162q-11 -11 -11 -26v-470l-131 -95l131 -93v-471q0 -13 11 -26l162 -161l-163 -168l-191 195q-56 53 -56 132v400z" />
<glyph unicode="|" horiz-adv-x="391" d="M76 -276v1801h240v-1801h-240z" />
<glyph unicode="}" horiz-adv-x="733" d="M78 1424l165 165l189 -189q31 -31 44 -61t13 -74v-401l172 -121v-144l-172 -120v-400q0 -79 -56 -132l-191 -195l-163 168l162 161q11 13 11 26v471l131 93l-131 95v470q0 15 -11 26z" />
<glyph unicode="~" horiz-adv-x="1189" d="M74 545q47 72 78 113.5t72.5 86.5t83.5 67t89 26q30 2 42 2q54 0 100.5 -21.5t125.5 -83.5q96 -76 141 -76q36 0 73 35t104 124l136 -90q-58 -152 -143 -228.5t-184 -76.5q-95 0 -187 65q-17 12 -43.5 30.5t-37.5 26.5t-28.5 19.5t-26 16t-20.5 10t-20.5 7t-18.5 1.5 q-9 0 -29 -4q-80 -18 -168 -155z" />
<glyph unicode="&#xa1;" horiz-adv-x="419" d="M76 837v263h269v-263h-269zM90 94l19 650h203l18 -651v-427h-240v428z" />
<glyph unicode="&#xa2;" horiz-adv-x="950" d="M72 260v504q0 44 13 74.5t44 61.5l79 79q31 31 62 44t75 13h72v97h164v-97h71q44 0 75 -13t62 -44l88 -88l-154 -154l-81 81q-11 11 -26 11h-35v-634h34q16 0 27 11l81 81l154 -154l-88 -88q-31 -31 -62 -44t-75 -13h-71v-97h-164v97h-72q-44 0 -75 13t-62 44l-79 79 q-31 31 -44 61.5t-13 74.5zM300 274q0 -14 11 -25l44 -43q11 -11 26 -11h36v634h-36q-16 0 -27 -11l-43 -43q-11 -11 -11 -25v-476z" />
<glyph unicode="&#xa3;" horiz-adv-x="1128" d="M75 230l135 133q11 10 11 26v220h-130v215h130v203q0 43 12.5 72.5t43.5 60.5l163 163q31 30 61.5 42.5t73.5 12.5h144q43 0 73 -12.5t61 -42.5l172 -171l-162 -162l-164 162q-11 11 -27 11h-51q-16 0 -27 -11l-129 -128q-12 -10 -12 -26v-174h369v-141l-74 -74h-295 v-249q0 -54 -23 -91l-15 -19q-3 -3 -3 -6q0 -4 8 -6l59 -14q51 -7 97 -7h482v-215h-677q-44 0 -73.5 12t-60.5 43z" />
<glyph unicode="&#xa4;" horiz-adv-x="1488" />
<glyph unicode="&#xa5;" horiz-adv-x="1275" d="M73 1372l128 60h100l310 -736h55l310 736h100l128 -60l-234 -535h100v-215h-194l-50 -114h-71v-89h315v-215h-315v-204h-233v204h-315v215h315v89h-71l-50 114h-194v215h100z" />
<glyph unicode="&#xa6;" horiz-adv-x="391" d="M76 -276v743h240v-743h-240zM76 781v744h240v-744h-240z" />
<glyph unicode="&#xa7;" horiz-adv-x="868" d="M69 -27h429q14 0 27 11l44 43q11 11 11 26v33q0 18 -17 27l-412 210q-82 42 -82 133v79q0 42 12 72t42 60l38 38q13 12 20 17l-30 15q-82 42 -82 134v79q0 42 12 71.5t42 59.5l78 78q30 30 59.5 42.5t72.5 12.5h359l63 -61v-136h-387q-16 0 -27 -11l-44 -45 q-11 -11 -11 -25v-25q0 -17 18 -27l375 -190q118 -60 118 -176v-60q0 -81 -67 -148l-17 -18q-4 -4 -24 -20l30 -19q78 -57 78 -150v-59q0 -82 -67 -148l-58 -60q-63 -61 -163 -61h-378l-62 59v139zM296 496q0 -27 26 -40l162 -77q23 0 38 15l33 33q16 16 16 36v34 q0 27 -27 40l-152 73h-9q-26 0 -39 -15l-33 -34q-15 -15 -15 -36v-29z" />
<glyph unicode="&#xa8;" horiz-adv-x="686" d="M88 1317v162h176v-162h-176zM424 1317v162h176v-162h-176z" />
<glyph unicode="&#xa9;" horiz-adv-x="1460" d="M73 716q0 136 52 259t140.5 211.5t210 140.5t255.5 52t255.5 -52t209.5 -140.5t140 -211.5t52 -259q0 -181 -88 -333.5t-239 -241t-330 -88.5q-134 0 -255.5 52.5t-210 141t-140.5 211t-52 258.5zM229 716q0 -137 68 -254t183.5 -185t250.5 -68t250.5 68t183 184.5 t67.5 254.5t-67.5 254.5t-183 184.5t-250.5 68t-251 -68t-183.5 -184.5t-67.5 -254.5zM424 522v388q0 52 35 87l87 88q36 36 84 36h188q48 0 84 -36l108 -108l-110 -111l-93 93q-6 6 -13 6h-139q-7 0 -13 -6l-57 -56q-5 -4 -5 -13v-348q0 -9 5 -13l56 -56q6 -6 13 -6h140 q7 0 13 6l93 93l111 -111l-109 -108q-36 -36 -84 -36h-188q-48 0 -84 36l-87 87q-35 35 -35 88z" />
<glyph unicode="&#xaa;" horiz-adv-x="667" d="M66 993v67q0 53 38 91l57 56q37 37 91 37h190v44q0 10 -7 17l-26 26q-7 7 -19 7h-290v102l46 44h272q55 0 92 -37l55 -55q38 -38 38 -91v-486h-147l-5 31l-26 -13q-39 -18 -82 -18h-98q-54 0 -91 37l-50 50q-38 38 -38 91zM227 1006q0 -10 8 -18l20 -20q7 -7 18 -7h65 q12 0 17 3l87 42v92h-162q-12 0 -19 -7l-26 -26q-8 -8 -8 -18v-41z" />
<glyph unicode="&#xab;" horiz-adv-x="1173" d="M71 422v231l397 371l136 -136l-288 -350l288 -351l-136 -136zM571 422v231l397 371l136 -136l-288 -350l288 -351l-136 -136z" />
<glyph unicode="&#xac;" horiz-adv-x="1488" />
<glyph unicode="&#xad;" horiz-adv-x="845" d="M74 490v222h701v-222h-701z" />
<glyph unicode="&#xae;" horiz-adv-x="1460" d="M73 716q0 136 52 259t140.5 211.5t210 140.5t255.5 52t255.5 -52t209.5 -140.5t140 -211.5t52 -259q0 -181 -88 -333.5t-239 -241t-330 -88.5q-134 0 -255.5 52.5t-210 141t-140.5 211t-52 258.5zM229 716q0 -137 68 -254t183.5 -185t250.5 -68t250.5 68t183 184.5 t67.5 254.5t-67.5 254.5t-183 184.5t-250.5 68t-251 -68t-183.5 -184.5t-67.5 -254.5zM464 351v713l52 51h325q48 0 84 -36l42 -43q35 -35 35 -87v-154q0 -52 -35 -87l-42 -43q-4 -4 -10 -8l-9 -2l114 -236l-69 -68h-78l-128 278h-122v-278h-159zM622 790h195q7 0 13 6 l12 12q6 6 6 15v98q0 10 -5 15l-13 12q-6 6 -13 6h-195v-164z" />
<glyph unicode="&#xaf;" horiz-adv-x="710" d="M89 1383v149h532v-149h-532z" />
<glyph unicode="&#xb0;" horiz-adv-x="753" d="M66 1344q0 130 91 221.5t221 91.5t221 -91.5t91 -221.5t-91 -221t-221 -91t-221 91t-91 221zM225 1344q0 -60 46.5 -106t106.5 -46t106.5 46t46.5 106t-46.5 106.5t-106.5 46.5t-106.5 -46.5t-46.5 -106.5z" />
<glyph unicode="&#xb1;" horiz-adv-x="1089" d="M71 -8v222h950v-222h-950zM71 643v222h357v305h235v-305h358v-222h-358v-305h-235v305h-357z" />
<glyph unicode="&#xb2;" horiz-adv-x="735" d="M67 510v268q0 98 99 148l302 154q4 3 8 3q0 1 -0.5 3t-0.5 4v79q0 9 -6 15l-43 43l-18 16h-131q-10 0 -16 -6l-81 -84l-111 111l80 79q46 46 108 46h164q62 0 108 -46l62 -62q45 -45 45 -110v-87q0 -87 -70 -122l-331 -168q-3 -1 -7 -3v-6v-129h442v-98l-49 -48h-554z " />
<glyph unicode="&#xb3;" horiz-adv-x="694" d="M57 611l108 108l54 -54q7 -7 19 -7h182q12 0 19 7l19 20q8 8 8 18v152q0 10 -8 18l-51 51q-8 8 -18 8h-222v145h233q11 0 19 8l34 35q7 7 7 18v62q0 9 -8 17l-20 20q-8 8 -18 8h-171q-10 0 -18 -8l-54 -53l-108 108l61 61q37 37 92 37h226q54 0 91 -37l50 -49 q38 -38 38 -91v-89q0 -50 -38 -90l-34 -35l40 -40q38 -38 38 -91v-179q0 -52 -38 -90l-49 -50q-37 -37 -92 -37h-238q-55 0 -92 37z" />
<glyph unicode="&#xb4;" horiz-adv-x="501" d="M73 1297l237 281l121 -112l-260 -260z" />
<glyph unicode="&#xb6;" horiz-adv-x="1050" d="M72 880v284q0 44 12.5 74t43.5 61l79 79q31 31 61.5 43.5t74.5 12.5h561l76 -76v-1581h-237v1438h-108v-1438h-236v834h-56q-45 0 -75 12t-61 43l-79 80q-31 31 -43.5 60.5t-12.5 73.5z" />
<glyph unicode="&#xb7;" horiz-adv-x="419" d="M76 466v263h269v-263h-269z" />
<glyph unicode="&#xb8;" horiz-adv-x="538" d="M95 -102l67 141h185l-36 -68q8 -1 23.5 -4t23.5 -4q55 -20 85.5 -62.5t30.5 -95.5q0 -70 -50.5 -121t-136.5 -51h-141v136h127q17 0 29.5 12.5t12.5 30.5q0 17 -12 28t-29 11h-8q-24 0 -90 -33z" />
<glyph unicode="&#xb9;" horiz-adv-x="491" d="M62 1246l31 67l204 76h80l52 -53v-826h-160v702l-172 -64z" />
<glyph unicode="&#xba;" horiz-adv-x="681" d="M67 993v314q0 52 38 90l49 50q37 37 92 37h191q55 0 92 -37l49 -50q38 -38 38 -90v-314q0 -53 -38 -91l-49 -50q-37 -37 -92 -37h-191q-55 0 -92 37l-49 50q-38 38 -38 91zM227 1006q0 -10 8 -18l20 -20q7 -7 19 -7h135q11 0 18 7l20 20q8 8 8 18v287q0 10 -8 18l-20 20 q-8 8 -18 8h-135q-11 0 -19 -8l-20 -20q-8 -8 -8 -18v-287z" />
<glyph unicode="&#xbb;" horiz-adv-x="1173" d="M72 187l287 351l-287 350l136 136l396 -371v-231l-396 -371zM571 187l288 351l-288 350l136 136l397 -371v-231l-397 -371z" />
<glyph unicode="&#xbc;" horiz-adv-x="1542" d="M78 1239l31 66l204 76h79l53 -52v-826h-160v702l-172 -64zM183 -33l975 1466h199l-974 -1466h-200zM846 243v67l293 570h162l53 -53v-491h109v-93l-53 -53h-56v-189h-160v189h-295zM1041 336h153v296z" />
<glyph unicode="&#xbd;" horiz-adv-x="1691" d="M80 1239l31 66l205 76h79l53 -52v-826h-161v702l-173 -64zM186 -33l974 1466h200l-975 -1466h-199zM1009 -2v268q0 99 98 148l295 151q14 7 14 22v67q0 13 -9 22l-46 45q-11 11 -23 11h-115q-17 0 -24 -9l-77 -81l-111 111l79 79q45 45 108 45l164 1q62 0 108 -46l62 -63 q45 -45 45 -109v-88q0 -86 -69 -121l-324 -164q-14 -7 -14 -22v-120h441v-99l-48 -48h-554z" />
<glyph unicode="&#xbe;" horiz-adv-x="1646" d="M72 602l108 107l54 -53q8 -8 19 -8h182q11 0 19 8l20 20q7 7 7 18v152q0 11 -7 18l-52 51q-8 8 -18 8h-222v145h233q11 0 19 8l34 35q7 7 7 18v61q0 10 -8 18l-20 20q-8 8 -18 8h-171q-10 0 -18 -8l-54 -53l-108 108l61 61q37 37 92 37h226q55 0 92 -37l49 -49 q38 -38 38 -91v-89q0 -50 -38 -90l-34 -35l40 -40q38 -38 38 -91v-179q0 -52 -38 -90l-49 -50q-37 -37 -92 -37h-238q-55 0 -92 37zM297 -33l975 1466h199l-974 -1466h-200zM948 243v67l294 570h162l53 -53v-491h109v-93l-53 -53h-56v-189h-161v189h-294zM1143 336h153v295z " />
<glyph unicode="&#xbf;" horiz-adv-x="993" d="M72 1v152q0 131 87 175l224 113q24 13 24 38v263h229v-271q0 -147 -150 -225l-163 -84q-22 -12 -22 -34v-123q0 -20 14 -34l82 -82q14 -16 38 -16h171q24 0 38 16l119 120l157 -156l-118 -117q-40 -40 -75.5 -56t-87.5 -16h-236q-53 0 -88.5 16t-75.5 56l-100 98 q-38 38 -52.5 74.5t-14.5 92.5zM386 836v263h269v-263h-269z" />
<glyph unicode="&#xc0;" d="M36 58l443 1376h330l443 -1376l-125 -58h-102l-139 442h-483l-140 -442h-102zM465 1850l121 112l238 -281l-98 -91zM471 657h347l-166 531h-15z" />
<glyph unicode="&#xc1;" d="M36 58l443 1376h330l443 -1376l-125 -58h-102l-139 442h-483l-140 -442h-102zM466 1681l238 281l121 -112l-261 -260zM471 657h347l-166 531h-15z" />
<glyph unicode="&#xc2;" d="M36 58l443 1376h330l443 -1376l-125 -58h-102l-139 442h-483l-140 -442h-102zM340 1681l231 272h149l230 -272l-98 -91l-207 206l-206 -206zM471 657h347l-166 531h-15z" />
<glyph unicode="&#xc3;" d="M36 58l443 1376h330l443 -1376l-125 -58h-102l-139 442h-483l-140 -442h-102zM293 1759q3 4 23 34.5t36 51t41 47.5t54 42.5t59 18.5q9 1 25 1q37 0 69.5 -15t84.5 -56q65 -51 94 -51q24 0 47.5 24t71.5 90l97 -64q-39 -99 -95 -148.5t-120 -49.5q-62 0 -124 44 q-26 18 -50.5 36.5t-34 26t-19.5 12t-19 4.5t-23 -3q-50 -12 -112 -118zM471 657h347l-166 531h-15z" />
<glyph unicode="&#xc4;" d="M36 58l443 1376h330l443 -1376l-125 -58h-102l-139 442h-483l-140 -442h-102zM389 1700v163h176v-163h-176zM471 657h347l-166 531h-15zM725 1700v163h176v-163h-176z" />
<glyph unicode="&#xc5;" d="M36 58l443 1376h330l443 -1376l-125 -58h-102l-139 442h-483l-140 -442h-102zM443 1817q0 84 58.5 142.5t143.5 58.5t143.5 -58.5t58.5 -142.5t-58.5 -142.5t-143.5 -58.5t-143.5 58.5t-58.5 142.5zM471 657h347l-166 531h-15zM583 1817q0 -26 18 -44.5t44 -18.5t44 18.5 t18 44.5t-18 45t-44 19t-44 -19t-18 -45z" />
<glyph unicode="&#xc6;" horiz-adv-x="1603" d="M35 58l444 1376h978l75 -75v-142h-649v-392h540v-217h-540v-310q0 -15 11 -26l45 -45q10 -10 26 -10h567v-142l-75 -75h-539q-44 0 -73.5 12t-60.5 43l-80 80q-31 31 -43 60.5t-12 73.5v171h-246l-138 -440h-104zM472 657h177v560z" />
<glyph unicode="&#xc7;" horiz-adv-x="1200" d="M125 351v731q0 43 12.5 73.5t42.5 60.5l164 163q31 30 61 42.5t73 12.5h352q43 0 73 -12.5t61 -42.5l172 -171l-162 -163l-164 163q-11 11 -27 11h-258q-16 0 -27 -11l-129 -128q-12 -10 -12 -27v-673q0 -16 12 -26l129 -128q11 -11 27 -11h258q16 0 27 11l164 163 l162 -163l-172 -171q-31 -30 -61 -42.5t-73 -12.5h-141l-22 -43q1 0 46 -6q55 -20 85.5 -62.5t30.5 -95.5q0 -70 -50.5 -121t-136.5 -51h-140v135h127q17 0 29 12t12 31q0 15 -12.5 27t-28.5 12q-1 0 -4 0.5t-4 0.5q-22 0 -90 -34l-81 80l54 115h-26q-43 0 -73 12.5 t-61 42.5l-164 163q-31 31 -43 60.5t-12 72.5z" />
<glyph unicode="&#xc8;" horiz-adv-x="1105" d="M150 268v898q0 44 12 73t43 60l79 80q31 31 61 43t74 12h538l74 -75v-140h-566q-16 0 -27 -11l-45 -45q-11 -11 -11 -26v-313h540v-215h-540v-312q0 -15 11 -26l45 -45q11 -11 27 -11h566v-141l-74 -74h-538q-44 0 -74 12t-61 43l-79 79q-31 31 -43 60.5t-12 73.5z M441 1850l121 112l237 -281l-98 -91z" />
<glyph unicode="&#xc9;" horiz-adv-x="1105" d="M150 268v898q0 44 12 73t43 60l79 79q31 31 61.5 43.5t73.5 12.5h538l74 -75v-140h-566q-16 0 -27 -11l-45 -45q-11 -11 -11 -26v-313h540v-215h-540v-312q0 -15 11 -26l45 -45q11 -11 27 -11h566v-141l-74 -74h-538q-44 0 -74 12t-61 43l-79 79q-31 31 -43 60.5 t-12 73.5zM442 1681l237 281l121 -112l-260 -260z" />
<glyph unicode="&#xca;" horiz-adv-x="1105" d="M150 268v898q0 44 12 73t43 60l79 79q31 31 61.5 43.5t73.5 12.5h538l74 -75v-140h-566q-16 0 -27 -11l-45 -45q-11 -11 -11 -26v-313h540v-215h-540v-312q0 -15 11 -26l45 -45q11 -11 27 -11h566v-141l-74 -74h-538q-44 0 -74 12t-61 43l-79 79q-31 31 -43 60.5 t-12 73.5zM316 1681l230 272h149l230 -272l-98 -91l-206 206l-207 -206z" />
<glyph unicode="&#xcb;" horiz-adv-x="1105" d="M150 268v898q0 44 12 73t43 60l79 79q31 31 61.5 43.5t73.5 12.5h538l74 -75v-140h-566q-16 0 -27 -11l-45 -45q-11 -11 -11 -26v-313h540v-215h-540v-312q0 -15 11 -26l45 -45q11 -11 27 -11h566v-141l-74 -74h-538q-44 0 -74 12t-61 43l-79 79q-31 31 -43 60.5 t-12 73.5zM365 1700v163h176v-163h-176zM700 1700v163h176v-163h-176z" />
<glyph unicode="&#xcc;" horiz-adv-x="514" d="M78 1850l121 112l238 -281l-98 -91zM141 0v1359l74 75h158v-1434h-232z" />
<glyph unicode="&#xcd;" horiz-adv-x="514" d="M79 1681l238 281l121 -112l-261 -260zM141 0v1359l74 75h158v-1434h-232z" />
<glyph unicode="&#xce;" horiz-adv-x="514" d="M-47 1681l230 272h150l230 -272l-98 -91l-207 206l-207 -206zM141 0v1359l74 75h158v-1434h-232z" />
<glyph unicode="&#xcf;" horiz-adv-x="514" d="M2 1700v163h176v-163h-176zM141 0v1359l74 75h158v-1434h-232zM338 1700v163h176v-163h-176z" />
<glyph unicode="&#xd0;" horiz-adv-x="1349" d="M57 606v222h162v531l75 75h583q78 0 135 -56l164 -162q31 -30 43.5 -60.5t12.5 -74.5v-729q0 -44 -12.5 -73.5t-43.5 -60.5l-164 -163q-31 -30 -61.5 -42.5t-73.5 -12.5h-658v606h-162zM453 217h378q14 0 26 10l129 129q11 11 11 25v672q0 14 -11 25l-129 129 q-12 10 -26 10h-378v-389h305v-222h-305v-389z" />
<glyph unicode="&#xd1;" horiz-adv-x="1366" d="M155 0v1359l74 75h286l454 -1151h11v1151h233v-1360l-74 -74h-280l-459 1151h-12v-1151h-233zM332 1759q3 4 23 34.5t36 51t41 47.5t54 42.5t59 18.5q9 1 25 1q37 0 69.5 -15t84.5 -56q65 -51 94 -51q24 0 47.5 24t71.5 90l97 -64q-39 -99 -95 -148.5t-120 -49.5 q-62 0 -124 44q-26 18 -50.5 36.5t-34 26t-19.5 12t-19 4.5q-10 0 -23 -3q-50 -12 -112 -118z" />
<glyph unicode="&#xd2;" horiz-adv-x="1357" d="M126 351v731q0 43 12.5 73t43.5 61l163 163q31 30 61.5 42.5t73.5 12.5h400q43 0 73 -12.5t61 -42.5l164 -163q31 -31 43.5 -61t12.5 -73v-731q0 -43 -12.5 -72.5t-43.5 -60.5l-164 -163q-31 -30 -61 -42.5t-73 -12.5h-400q-43 0 -73.5 12.5t-61.5 42.5l-163 163 q-31 31 -43.5 60.5t-12.5 72.5zM358 380q0 -16 12 -26l129 -128q11 -11 27 -11h308q16 0 27 11l129 128q11 10 11 26v673q0 17 -11 27l-129 128q-11 11 -27 11h-308q-16 0 -27 -11l-129 -129q-12 -11 -12 -26v-673zM500 1850l121 112l238 -281l-98 -91z" />
<glyph unicode="&#xd3;" horiz-adv-x="1357" d="M126 351v731q0 43 12.5 73t43.5 61l163 163q31 30 61.5 42.5t73.5 12.5h400q43 0 73 -12.5t61 -42.5l164 -163q31 -31 43.5 -61t12.5 -73v-731q0 -43 -12.5 -72.5t-43.5 -60.5l-164 -163q-31 -30 -61 -42.5t-73 -12.5h-400q-43 0 -73.5 12.5t-61.5 42.5l-163 163 q-31 31 -43.5 60.5t-12.5 72.5zM358 380q0 -16 12 -26l129 -128q11 -11 27 -11h308q16 0 27 11l129 128q11 10 11 26v673q0 17 -11 27l-129 128q-11 11 -27 11h-308q-16 0 -27 -11l-129 -129q-12 -11 -12 -26v-673zM501 1681l238 281l121 -112l-261 -260z" />
<glyph unicode="&#xd4;" horiz-adv-x="1357" d="M126 351v731q0 43 12.5 73t43.5 61l163 163q31 30 61.5 42.5t73.5 12.5h400q43 0 73 -12.5t61 -42.5l164 -163q31 -31 43.5 -61t12.5 -73v-731q0 -43 -12.5 -72.5t-43.5 -60.5l-164 -163q-31 -30 -61 -42.5t-73 -12.5h-400q-43 0 -73.5 12.5t-61.5 42.5l-163 163 q-31 31 -43.5 60.5t-12.5 72.5zM358 380q0 -16 12 -26l129 -128q11 -11 27 -11h308q16 0 27 11l129 128q11 10 11 26v673q0 17 -11 27l-129 128q-11 11 -27 11h-308q-16 0 -27 -11l-129 -129q-12 -11 -12 -26v-673zM375 1681l230 272h149l231 -272l-99 -91l-206 206 l-207 -206z" />
<glyph unicode="&#xd5;" horiz-adv-x="1357" d="M126 351v731q0 43 12.5 73t43.5 61l163 163q31 30 61.5 42.5t73.5 12.5h400q43 0 73 -12.5t61 -42.5l164 -163q31 -31 43.5 -61t12.5 -73v-731q0 -43 -12.5 -72.5t-43.5 -60.5l-164 -163q-31 -30 -61 -42.5t-73 -12.5h-400q-43 0 -73.5 12.5t-61.5 42.5l-163 163 q-31 31 -43.5 60.5t-12.5 72.5zM328 1759q3 4 23 34.5t36 51t41 47.5t54 42.5t59 18.5q9 1 25 1q37 0 69.5 -15t84.5 -56q65 -51 94 -51q24 0 47.5 24t71.5 90l97 -64q-39 -99 -95 -148.5t-120 -49.5q-62 0 -124 44q-26 18 -51 36.5t-34.5 25.5t-19.5 12t-19 5t-22 -3 q-50 -12 -112 -118zM358 380q0 -16 12 -26l129 -128q11 -11 27 -11h308q16 0 27 11l129 128q11 10 11 26v673q0 17 -11 27l-129 128q-11 11 -27 11h-308q-16 0 -27 -11l-129 -129q-12 -11 -12 -26v-673z" />
<glyph unicode="&#xd6;" horiz-adv-x="1357" d="M126 351v731q0 43 12.5 73t43.5 61l163 163q31 30 61.5 42.5t73.5 12.5h400q43 0 73 -12.5t61 -42.5l164 -163q31 -31 43.5 -61t12.5 -73v-731q0 -43 -12.5 -72.5t-43.5 -60.5l-164 -163q-31 -30 -61 -42.5t-73 -12.5h-400q-43 0 -73.5 12.5t-61.5 42.5l-163 163 q-31 31 -43.5 60.5t-12.5 72.5zM358 380q0 -16 12 -26l129 -128q11 -11 27 -11h308q16 0 27 11l129 128q11 10 11 26v673q0 17 -11 27l-129 128q-11 11 -27 11h-308q-16 0 -27 -11l-129 -129q-12 -11 -12 -26v-673zM424 1700v163h176v-163h-176zM760 1700v163h176v-163h-176 z" />
<glyph unicode="&#xd7;" horiz-adv-x="978" d="M76 342l256 257l-256 256l158 158l256 -256l257 256l158 -158l-257 -256l257 -257l-158 -158l-257 257l-257 -257z" />
<glyph unicode="&#xd8;" horiz-adv-x="1357" d="M125 352v729q0 44 12.5 74.5t43.5 60.5l164 162q57 56 135 56h326l33 102h221l-51 -155q28 -23 50 -46l120 -119q31 -30 43.5 -60.5t12.5 -74.5v-729q0 -44 -12.5 -73.5t-43.5 -60.5l-164 -163q-31 -30 -61.5 -42.5t-73.5 -12.5h-325l-34 -102h-221l50 153q-31 29 -38 37 l-131 130q-31 31 -43.5 60.5t-12.5 73.5zM359 381q0 -14 11 -25l47 -47q9 -9 14 -13l303 921h-208q-14 0 -26 -10l-130 -129q-11 -11 -11 -26v-671zM626 217h208q14 0 26 10l129 129q11 11 11 25v672q0 14 -11 25l-38 38q-19 18 -22 21z" />
<glyph unicode="&#xd9;" horiz-adv-x="1341" d="M164 268v1091l75 75h158v-1137q0 -15 11 -26l45 -45q11 -11 27 -11h393q17 0 28 11l45 45q11 11 11 26v1063l74 74h158v-1166q0 -44 -12 -73.5t-43 -60.5l-80 -79q-31 -31 -60.5 -43t-73.5 -12h-486q-44 0 -74 12t-61 43l-79 79q-31 31 -43.5 61t-12.5 73zM492 1850 l121 112l238 -281l-98 -91z" />
<glyph unicode="&#xda;" horiz-adv-x="1341" d="M164 268v1091l75 75h158v-1137q0 -15 11 -26l45 -45q11 -11 27 -11h393q17 0 28 11l45 45q11 11 11 26v1063l74 74h158v-1166q0 -44 -12 -73.5t-43 -60.5l-80 -79q-31 -31 -60.5 -43t-73.5 -12h-486q-44 0 -74 12t-61 43l-79 79q-31 31 -43.5 61t-12.5 73zM493 1681 l238 281l121 -112l-261 -260z" />
<glyph unicode="&#xdb;" horiz-adv-x="1341" d="M164 268v1091l75 75h158v-1137q0 -15 11 -26l45 -45q11 -11 27 -11h393q17 0 28 11l45 45q11 11 11 26v1063l74 74h158v-1166q0 -44 -12 -73.5t-43 -60.5l-79 -79q-31 -31 -61 -43t-74 -12h-486q-44 0 -74 12t-61 43l-79 79q-31 31 -43.5 61t-12.5 73zM367 1681l231 272 h149l230 -272l-98 -91l-207 206l-207 -206z" />
<glyph unicode="&#xdc;" horiz-adv-x="1341" d="M164 268v1091l75 75h158v-1137q0 -15 11 -26l45 -45q11 -11 27 -11h393q17 0 28 11l45 45q11 11 11 26v1063l74 74h158v-1166q0 -44 -12 -73.5t-43 -60.5l-79 -79q-31 -31 -61 -43t-74 -12h-486q-44 0 -74 12t-61 43l-79 79q-31 31 -43.5 61t-12.5 73zM416 1700v163h176 v-163h-176zM752 1700v163h176v-163h-176z" />
<glyph unicode="&#xdd;" horiz-adv-x="1193" d="M33 1374l128 60h100l309 -740h56l309 740h100l128 -60l-389 -895h-60v-479h-232v479h-60zM419 1681l238 281l121 -112l-261 -260z" />
<glyph unicode="&#xde;" horiz-adv-x="1228" d="M158 0v1434h240v-230h436q44 0 75 -12.5t62 -43.5l79 -79q31 -31 44 -61.5t13 -74.5v-321q0 -44 -13 -74.5t-44 -61.5l-79 -79q-31 -31 -62 -43.5t-75 -12.5h-436v-341h-240zM398 563h392q13 0 21 8l47 48q9 9 9 20v267q0 11 -9 20l-47 48q-8 8 -21 8h-392v-419z" />
<glyph unicode="&#xdf;" horiz-adv-x="1228" d="M158 0v1162q0 44 12.5 74.5t43.5 61.5l80 79q31 31 61.5 44t74.5 13h309q44 0 75 -13t62 -44l79 -79q31 -31 44 -61.5t13 -74.5v-217q0 -44 -13 -74.5t-44 -61.5l-27 -27l37 -37q31 -31 44 -61.5t13 -74.5v-338q0 -44 -13 -74.5t-44 -61.5l-79 -79q-31 -31 -62 -43.5 t-75 -12.5h-272v207h236q16 0 26 10l43 43q11 11 11 26v308q0 15 -11 26l-43 43q-10 10 -26 10h-236v207h227q14 0 25 11l44 43q11 11 11 25v189q0 14 -11 25l-43 43q-11 11 -27 11h-236q-16 0 -27 -11l-43 -43q-11 -11 -11 -25v-1148h-228z" />
<glyph unicode="&#xe0;" horiz-adv-x="989" d="M83 264v107q0 43 12 72t43 59l89 88q30 30 59.5 42.5t72.5 12.5h318v93q0 15 -11 26l-53 52q-11 11 -27 11h-449v136l62 61h422q43 0 72.5 -12.5t59.5 -42.5l87 -86q55 -55 55 -132v-751h-199l-10 57l-63 -30q-57 -27 -121 -27h-154q-43 0 -72.5 12.5t-59.5 42.5l-78 78 q-30 30 -42.5 59.5t-12.5 71.5zM301 278q0 -15 11 -26l44 -44q11 -11 27 -11h117q12 0 24 5l153 73v173h-284q-16 0 -27 -11l-54 -54q-11 -11 -11 -26v-79zM323 1441l121 111l237 -281l-98 -90z" />
<glyph unicode="&#xe1;" horiz-adv-x="989" d="M83 264v107q0 43 12 72t43 59l89 88q30 30 59.5 42.5t72.5 12.5h318v93q0 15 -11 26l-53 52q-11 11 -27 11h-449v136l62 61h422q43 0 72.5 -12.5t59.5 -42.5l87 -86q55 -55 55 -132v-751h-199l-10 57l-63 -30q-57 -27 -121 -27h-154q-43 0 -72.5 12.5t-59.5 42.5l-78 78 q-30 30 -42.5 59.5t-12.5 71.5zM301 278q0 -15 11 -26l44 -44q11 -11 27 -11h117q12 0 24 5l153 73v173h-284q-16 0 -27 -11l-54 -54q-11 -11 -11 -26v-79zM324 1271l238 281l121 -111l-261 -260z" />
<glyph unicode="&#xe2;" horiz-adv-x="989" d="M83 264v107q0 43 12 72t43 59l89 88q30 30 59.5 42.5t72.5 12.5h318v93q0 15 -11 26l-53 52q-11 11 -27 11h-449v136l62 61h422q43 0 72.5 -12.5t59.5 -42.5l87 -86q55 -55 55 -132v-751h-199l-10 57l-63 -30q-57 -27 -121 -27h-154q-43 0 -72.5 12.5t-59.5 42.5l-78 78 q-30 30 -42.5 59.5t-12.5 71.5zM198 1271l230 273h149l230 -273l-98 -90l-206 206l-207 -206zM301 278q0 -15 11 -26l44 -44q11 -11 27 -11h117q12 0 24 5l153 73v173h-284q-16 0 -27 -11l-54 -54q-11 -11 -11 -26v-79z" />
<glyph unicode="&#xe3;" horiz-adv-x="989" d="M83 264v107q0 43 12 72t43 59l89 88q30 30 59.5 42.5t72.5 12.5h318v93q0 15 -11 26l-53 52q-11 11 -27 11h-449v136l62 61h422q43 0 72.5 -12.5t59.5 -42.5l87 -86q55 -55 55 -132v-751h-199l-10 57l-63 -30q-57 -27 -121 -27h-154q-43 0 -72.5 12.5t-59.5 42.5l-78 78 q-30 30 -42.5 59.5t-12.5 71.5zM151 1349q3 4 23 34.5t36 51t41 47.5t54 42.5t59 18.5q9 1 25 1q37 0 69.5 -15t84.5 -56q65 -51 93 -51q24 0 48.5 24.5t71.5 89.5l96 -63q-40 -99 -95 -148.5t-119 -49.5q-63 0 -125 44q-26 18 -50.5 36.5t-34 26t-19.5 12t-19 4.5 q-5 0 -23 -4q-50 -12 -111 -117zM301 278q0 -15 11 -26l44 -44q11 -11 27 -11h117q12 0 24 5l153 73v173h-284q-16 0 -27 -11l-54 -54q-11 -11 -11 -26v-79z" />
<glyph unicode="&#xe4;" horiz-adv-x="989" d="M83 264v107q0 43 12 72t43 59l89 88q30 30 59.5 42.5t72.5 12.5h318v93q0 15 -11 26l-53 52q-11 11 -27 11h-449v136l62 61h422q43 0 72.5 -12.5t59.5 -42.5l87 -86q55 -55 55 -132v-751h-199l-10 57l-63 -30q-57 -27 -121 -27h-154q-43 0 -72.5 12.5t-59.5 42.5l-78 78 q-30 30 -42.5 59.5t-12.5 71.5zM247 1291v163h176v-163h-176zM301 278q0 -15 11 -26l44 -44q11 -11 27 -11h117q12 0 24 5l153 73v173h-284q-16 0 -27 -11l-54 -54q-11 -11 -11 -26v-79zM583 1291v163h175v-163h-175z" />
<glyph unicode="&#xe5;" horiz-adv-x="989" d="M83 264v107q0 43 12 72t43 59l89 88q30 30 59.5 42.5t72.5 12.5h318v93q0 15 -11 26l-53 52q-11 11 -27 11h-449v136l62 61h422q43 0 72.5 -12.5t59.5 -42.5l87 -86q55 -55 55 -132v-751h-199l-10 57l-63 -30q-57 -27 -121 -27h-154q-43 0 -72.5 12.5t-59.5 42.5l-78 78 q-30 30 -42.5 59.5t-12.5 71.5zM301 278q0 -15 11 -26l44 -44q11 -11 27 -11h117q12 0 24 5l153 73v173h-284q-16 0 -27 -11l-54 -54q-11 -11 -11 -26v-79zM301 1408q0 84 58.5 142.5t143.5 58.5t143.5 -58.5t58.5 -142.5t-58.5 -142.5t-143.5 -58.5t-143.5 58.5 t-58.5 142.5zM440 1408q0 -26 18.5 -45t44.5 -19t44 19t18 45t-18 45t-44 19t-44.5 -19t-18.5 -45z" />
<glyph unicode="&#xe6;" horiz-adv-x="1658" d="M83 264v107q0 43 12 72t43 59l89 88q30 30 59.5 42.5t72.5 12.5h318v93q0 15 -11 26l-53 52q-11 11 -27 11h-449v136l62 61h422q43 0 72.5 -12.5t59.5 -42.5l30 -30q3 -3 8 -3q4 0 7 3l30 30q30 30 59.5 42.5t72.5 12.5h277q43 0 72.5 -12.5t59.5 -42.5l78 -78 q30 -30 42.5 -59.5t12.5 -71.5v-273l-62 -62h-528v-147q0 -14 12 -26l43 -44q11 -11 27 -11h208q16 0 27 11l78 78l147 -147l-85 -84q-30 -30 -59.5 -42.5t-72.5 -12.5h-267q-30 0 -57 19l-18 17v-36h-199l-10 57l-63 -30q-57 -27 -121 -27h-154q-43 0 -72.5 12.5 t-59.5 42.5l-78 78q-30 30 -42.5 59.5t-12.5 71.5zM301 278q0 -15 11 -26l44 -44q11 -11 27 -11h117q12 0 24 5l153 73v173h-284q-16 0 -27 -11l-54 -54q-11 -11 -11 -26v-79zM912 621h372v125q0 15 -11 26l-44 44q-11 11 -27 11h-208q-16 0 -27 -11l-43 -44 q-12 -12 -12 -26v-125z" />
<glyph unicode="&#xe7;" horiz-adv-x="909" d="M85 264v496q0 42 12 71.5t42 59.5l78 78q30 30 59.5 42.5t72.5 12.5h302q43 0 72.5 -12.5t59.5 -42.5l85 -84l-147 -147l-78 78q-11 11 -27 11h-232q-16 0 -27 -11l-44 -44q-11 -11 -11 -26v-468q0 -15 11 -26l44 -44q11 -11 27 -11h232q16 0 27 11l78 78l147 -147 l-85 -84q-30 -30 -59.5 -42.5t-72.5 -12.5h-135l-18 -35q16 0 46 -8q55 -18 86 -60.5t31 -95.5q0 -70 -51 -121t-137 -51h-140v136h127q17 0 29 11.5t12 28.5t-11.5 29t-28.5 12q-1 0 -4 0.5t-4 0.5q-24 0 -90 -33l-82 77l52 110l-11 1q-57 5 -105 53l-78 78 q-30 30 -42 59.5t-12 71.5z" />
<glyph unicode="&#xe8;" horiz-adv-x="960" d="M83 264v496q0 42 12.5 71.5t42.5 59.5l78 78q30 30 59.5 42.5t72.5 12.5h277q43 0 72.5 -12.5t59.5 -42.5l78 -78q30 -30 42.5 -59.5t12.5 -71.5v-273l-62 -62h-527v-147q0 -15 11 -26l43 -44q11 -11 27 -11h208q16 0 27 11l78 78l147 -146l-85 -85q-30 -30 -59.5 -42.5 t-72.5 -12.5h-277q-43 0 -72.5 12.5t-59.5 42.5l-78 78q-30 30 -42.5 59.5t-12.5 71.5zM301 621h371v126q0 14 -11 25l-44 44q-11 11 -27 11h-208q-16 0 -27 -11l-43 -44q-11 -11 -11 -26v-125zM302 1441l121 111l237 -281l-98 -90z" />
<glyph unicode="&#xe9;" horiz-adv-x="960" d="M83 264v496q0 42 12.5 71.5t42.5 59.5l78 78q30 30 59.5 42.5t72.5 12.5h277q43 0 72.5 -12.5t59.5 -42.5l78 -78q30 -30 42.5 -59.5t12.5 -71.5v-273l-62 -62h-527v-147q0 -15 11 -26l43 -44q11 -11 27 -11h208q16 0 27 11l78 78l147 -146l-85 -85q-30 -30 -59.5 -42.5 t-72.5 -12.5h-277q-43 0 -72.5 12.5t-59.5 42.5l-78 78q-30 30 -42.5 59.5t-12.5 71.5zM301 621h371v125q0 15 -11 26l-44 44q-11 11 -27 11h-208q-16 0 -27 -11l-43 -44q-11 -11 -11 -26v-125zM303 1271l237 281l121 -111l-260 -260z" />
<glyph unicode="&#xea;" horiz-adv-x="960" d="M83 264v496q0 42 12.5 71.5t42.5 59.5l78 78q30 30 59.5 42.5t72.5 12.5h277q43 0 72.5 -12.5t59.5 -42.5l78 -78q30 -30 42.5 -59.5t12.5 -71.5v-273l-62 -62h-527v-147q0 -15 11 -26l43 -44q11 -11 27 -11h208q16 0 27 11l78 78l147 -146l-85 -85q-30 -30 -59.5 -42.5 t-72.5 -12.5h-277q-43 0 -72.5 12.5t-59.5 42.5l-78 78q-30 30 -42.5 59.5t-12.5 71.5zM177 1271l230 273h149l230 -273l-98 -90l-206 206l-207 -206zM301 621h371v125q0 15 -11 26l-44 44q-11 11 -27 11h-208q-15 0 -26 -11l-44 -44q-11 -11 -11 -26v-125z" />
<glyph unicode="&#xeb;" horiz-adv-x="960" d="M83 264v496q0 42 12.5 71.5t42.5 59.5l78 78q30 30 59.5 42.5t72.5 12.5h277q43 0 72.5 -12.5t59.5 -42.5l78 -78q30 -30 42.5 -59.5t12.5 -71.5v-273l-62 -62h-527v-147q0 -15 11 -26l44 -44q11 -11 26 -11h208q16 0 27 11l78 78l147 -146l-85 -85q-30 -30 -59.5 -42.5 t-72.5 -12.5h-277q-43 0 -72.5 12.5t-59.5 42.5l-78 78q-30 30 -42.5 59.5t-12.5 71.5zM226 1291v163h176v-163h-176zM301 621h371v126q0 14 -11 25l-44 44q-11 11 -27 11h-208q-15 0 -26 -11l-44 -44q-11 -11 -11 -26v-125zM562 1291v163h175v-163h-175z" />
<glyph unicode="&#xec;" horiz-adv-x="403" d="M27 1431l121 111l237 -281l-98 -90zM101 0v1024h217v-1024h-217z" />
<glyph unicode="&#xed;" horiz-adv-x="403" d="M28 1261l237 281l122 -111l-261 -260zM101 0v1024h217v-1024h-217z" />
<glyph unicode="&#xee;" horiz-adv-x="403" d="M-98 1261l230 272h149l230 -272l-98 -90l-206 206l-207 -206zM101 0v1024h217v-1024h-217z" />
<glyph unicode="&#xef;" horiz-adv-x="403" d="M-49 1281v162h176v-162h-176zM101 0v1024h217v-1024h-217zM287 1281v162h175v-162h-175z" />
<glyph unicode="&#xf0;" horiz-adv-x="1085" d="M69 279v350q0 85 57 142l79 79q33 33 63.5 45.5t73.5 12.5h105q59 0 113 -25l118 -55v213l-91 -69l-67 86l146 112q-9 14 -19 23l-23 24q-10 10 -27 10h-255q-17 0 -27 -10l-81 -81l-154 154l89 88q31 31 61.5 43.5t74.5 12.5h329q44 0 74.5 -12.5t61.5 -43.5l34 -33 q21 -19 36 -38l100 77l71 -88l-110 -84q5 -19 5 -49v-884q0 -85 -56 -141l-80 -80q-33 -33 -63 -45.5t-73 -12.5h-292q-43 0 -73.5 13t-63.5 46l-79 79q-57 57 -57 141zM298 284q0 -13 11 -24l41 -41q10 -10 27 -10h222q16 0 26 10l42 41q11 11 11 24v312l-215 101 q-10 5 -23 5h-63q-17 0 -27 -10l-41 -42q-11 -11 -11 -24v-342z" />
<glyph unicode="&#xf1;" horiz-adv-x="1038" d="M114 0v1024h194l15 -85l130 61q51 24 109 24h109q43 0 73 -12.5t60 -42.5l77 -78q30 -30 42.5 -59.5t12.5 -71.5v-760h-217v747q0 13 -12 25l-43 44q-11 11 -27 11h-67q-12 0 -24 -5l-214 -101v-721h-218zM152 1333q3 4 23 34.5t36 51t41 47.5t54 42.5t59 18.5q9 1 26 1 q37 0 69.5 -15t84.5 -56q65 -51 93 -51q24 0 47.5 24t71.5 90l97 -63q-39 -99 -95 -148.5t-120 -49.5q-62 0 -124 44q-26 18 -50.5 36.5t-34 26t-19.5 12t-19 4.5q-5 0 -23 -4q-51 -12 -112 -117z" />
<glyph unicode="&#xf2;" horiz-adv-x="997" d="M84 264v496q0 42 12.5 71.5t42.5 59.5l78 78q30 30 59.5 42.5t72.5 12.5h302q43 0 72.5 -12.5t59.5 -42.5l78 -78q30 -30 42 -59.5t12 -71.5v-496q0 -42 -12 -71.5t-42 -59.5l-78 -78q-30 -30 -59.5 -42.5t-72.5 -12.5h-302q-43 0 -72.5 12.5t-59.5 42.5l-78 78 q-30 30 -42.5 59.5t-12.5 71.5zM302 278q0 -15 11 -26l43 -44q11 -11 27 -11h233q16 0 27 11l44 44q11 11 11 26v469q0 14 -11 25l-44 44q-11 11 -27 11h-233q-16 0 -27 -11l-43 -44q-11 -11 -11 -25v-469zM320 1441l121 111l237 -281l-98 -90z" />
<glyph unicode="&#xf3;" horiz-adv-x="997" d="M84 264v496q0 42 12.5 71.5t42.5 59.5l78 78q30 30 59.5 42.5t72.5 12.5h302q43 0 72.5 -12.5t59.5 -42.5l78 -78q30 -30 42 -59.5t12 -71.5v-496q0 -42 -12 -71.5t-42 -59.5l-78 -78q-30 -30 -59.5 -42.5t-72.5 -12.5h-302q-43 0 -72.5 12.5t-59.5 42.5l-78 78 q-30 30 -42.5 59.5t-12.5 71.5zM302 277q0 -14 11 -25l43 -44q11 -11 27 -11h233q16 0 27 11l44 44q11 11 11 26v468q0 15 -11 26l-44 44q-11 11 -27 11h-233q-16 0 -27 -11l-43 -44q-11 -11 -11 -26v-469zM321 1271l237 281l122 -111l-261 -260z" />
<glyph unicode="&#xf4;" horiz-adv-x="997" d="M84 264v496q0 42 12.5 71.5t42.5 59.5l78 78q30 30 59.5 42.5t72.5 12.5h302q43 0 72.5 -12.5t59.5 -42.5l78 -78q30 -30 42 -59.5t12 -71.5v-496q0 -42 -12 -71.5t-42 -59.5l-78 -78q-30 -30 -59.5 -42.5t-72.5 -12.5h-302q-43 0 -72.5 12.5t-59.5 42.5l-78 78 q-30 30 -42.5 59.5t-12.5 71.5zM195 1271l230 273h149l230 -273l-98 -90l-206 206l-207 -206zM302 277q0 -14 11 -25l43 -44q11 -11 27 -11h233q16 0 27 11l44 44q11 11 11 26v468q0 15 -11 26l-44 44q-11 11 -27 11h-233q-15 0 -26 -11l-44 -44q-11 -11 -11 -26v-469z" />
<glyph unicode="&#xf5;" horiz-adv-x="997" d="M84 264v496q0 42 12.5 71.5t42.5 59.5l78 78q30 30 59.5 42.5t72.5 12.5h302q43 0 72.5 -12.5t59.5 -42.5l78 -78q30 -30 42 -59.5t12 -71.5v-496q0 -42 -12 -71.5t-42 -59.5l-78 -78q-30 -30 -59.5 -42.5t-72.5 -12.5h-302q-43 0 -72.5 12.5t-59.5 42.5l-78 78 q-30 30 -42.5 59.5t-12.5 71.5zM148 1349q3 4 23 34.5t36 51t41 47.5t54 42.5t59 18.5q9 1 25 1q37 0 69.5 -15t84.5 -56q65 -51 93 -51q24 0 48.5 24.5t71.5 89.5l96 -63q-40 -99 -95 -148.5t-119 -49.5q-63 0 -125 44q-26 18 -50.5 36.5t-34 26t-19.5 12t-19 4.5 q-5 0 -23 -4q-50 -12 -111 -117zM302 278q0 -15 11 -26l43 -44q11 -11 27 -11h233q16 0 27 11l44 44q11 11 11 26v469q0 14 -11 25l-44 44q-11 11 -27 11h-233q-16 0 -27 -11l-43 -44q-11 -11 -11 -25v-469z" />
<glyph unicode="&#xf6;" horiz-adv-x="997" d="M84 264v496q0 42 12.5 71.5t42.5 59.5l78 78q30 30 59.5 42.5t72.5 12.5h302q43 0 72.5 -12.5t59.5 -42.5l78 -78q30 -30 42 -59.5t12 -71.5v-496q0 -42 -12 -71.5t-42 -59.5l-78 -78q-30 -30 -59.5 -42.5t-72.5 -12.5h-302q-43 0 -72.5 12.5t-59.5 42.5l-78 78 q-30 30 -42.5 59.5t-12.5 71.5zM244 1291v163h176v-163h-176zM302 278q0 -15 11 -26l43 -44q11 -11 27 -11h233q16 0 27 11l44 44q11 11 11 26v469q0 14 -11 25l-44 44q-11 11 -27 11h-233q-15 0 -26 -11l-44 -44q-11 -11 -11 -25v-469zM580 1291v163h175v-163h-175z" />
<glyph unicode="&#xf7;" horiz-adv-x="1089" d="M72 488v222h950v-222h-950zM412 117v263h269v-263h-269zM412 819v263h269v-263h-269z" />
<glyph unicode="&#xf8;" horiz-adv-x="997" d="M84 264v496q0 42 12.5 71.5t42.5 59.5l78 78q30 30 59.5 42.5t72.5 12.5h228l34 104h180l-43 -130q22 -16 35 -29l78 -78q30 -30 42 -59.5t12 -71.5v-496q0 -42 -12 -71.5t-42 -59.5l-78 -78q-30 -30 -59.5 -42.5t-72.5 -12.5h-231l-34 -104h-180l43 131q-11 7 -32 28 l-78 78q-30 30 -42.5 59.5t-12.5 71.5zM302 277q0 -14 11 -25l7 -8l192 583h-129q-16 0 -27 -11l-43 -44q-11 -11 -11 -26v-469zM485 197h131q16 0 27 11l44 44q11 11 11 26v468q0 15 -11 26l-10 10z" />
<glyph unicode="&#xf9;" horiz-adv-x="1028" d="M104 264v760h218v-746q0 -15 11 -26l43 -44q11 -11 27 -11h68q12 0 24 5l213 101v721h218v-1024h-194l-15 85l-129 -61q-51 -24 -110 -24h-109q-43 0 -72.5 12.5t-59.5 42.5l-78 78q-30 30 -42.5 59.5t-12.5 71.5zM334 1441l121 111l238 -281l-98 -90z" />
<glyph unicode="&#xfa;" horiz-adv-x="1028" d="M104 264v760h218v-747q0 -14 11 -25l43 -44q11 -11 27 -11h68q12 0 24 5l213 101v721h218v-1024h-194l-15 85l-129 -61q-51 -24 -110 -24h-109q-43 0 -72.5 12.5t-59.5 42.5l-78 78q-30 30 -42.5 59.5t-12.5 71.5zM335 1271l238 281l121 -111l-260 -260z" />
<glyph unicode="&#xfb;" horiz-adv-x="1028" d="M104 264v760h218v-747q0 -14 11 -25l43 -44q11 -11 27 -11h68q12 0 24 5l213 101v721h218v-1024h-194l-15 85l-129 -61q-51 -24 -110 -24h-109q-43 0 -72.5 12.5t-59.5 42.5l-78 78q-30 30 -42.5 59.5t-12.5 71.5zM209 1271l231 273h149l230 -273l-98 -90l-207 206 l-206 -206z" />
<glyph unicode="&#xfc;" horiz-adv-x="1028" d="M104 264v760h218v-746q0 -15 11 -26l43 -44q11 -11 27 -11h68q12 0 24 5l213 101v721h218v-1024h-194l-15 85l-129 -61q-51 -24 -110 -24h-109q-43 0 -72.5 12.5t-59.5 42.5l-78 78q-30 30 -42.5 59.5t-12.5 71.5zM258 1291v163h176v-163h-176zM594 1291v163h176v-163 h-176z" />
<glyph unicode="&#xfd;" horiz-adv-x="1005" d="M28 979l98 45h115l252 -796h16l258 796h114l97 -45l-340 -989q-117 -333 -426 -363l-31 176q102 11 145.5 46t73.5 110l14 41h-49zM325 1275l238 281l121 -111l-261 -260z" />
<glyph unicode="&#xfe;" horiz-adv-x="1062" d="M124 -367v1801h218v-487l121 56q51 24 109 24h104q43 0 72.5 -12t59.5 -42l78 -78q30 -30 42 -60t12 -72v-499q0 -42 -12 -72t-42 -60l-78 -78q-30 -30 -59.5 -42t-72.5 -12h-334v-305l-62 -62h-156zM342 197h299q17 0 27 10l44 44q11 11 11 26v473q0 15 -11 26l-44 43 q-11 11 -27 11h-63q-11 0 -22 -5l-214 -100v-528z" />
<glyph unicode="&#xff;" horiz-adv-x="1005" d="M28 979l98 45h115l252 -796h16l258 796h114l97 -45l-340 -989q-117 -333 -426 -363l-31 176q102 11 145.5 46t73.5 110l14 41h-49zM248 1295v162h176v-162h-176zM584 1295v162h176v-162h-176z" />
<glyph unicode="&#x152;" horiz-adv-x="1955" d="M125 352v729q0 44 12.5 74.5t43.5 60.5l164 162q57 56 135 56h400q78 0 135 -56l58 -57q10 5 18 13l45 44q31 31 61 43.5t73 12.5h539l75 -75v-142h-567q-15 0 -26 -11l-45 -44q-11 -11 -11 -26v-311h539v-217h-539v-310q0 -15 11 -26l45 -45q10 -10 26 -10h567v-142 l-75 -75h-539q-44 0 -73.5 12t-60.5 43l-45 45q-8 8 -18 13l-58 -58q-31 -30 -61.5 -42.5t-73.5 -12.5h-400q-43 0 -73.5 12.5t-61.5 42.5l-164 163q-31 31 -43.5 60.5t-12.5 73.5zM359 381q0 -14 11 -25l130 -129q13 -11 26 -11h308q13 0 26 11l130 128q10 10 10 24v675 q0 14 -10 24l-130 129q-12 10 -26 10h-308q-13 0 -26 -11l-130 -128q-11 -11 -11 -26v-671z" />
<glyph unicode="&#x153;" horiz-adv-x="1570" d="M84 264v496q0 42 12.5 71.5t42.5 59.5l78 78q30 30 59.5 42.5t72.5 12.5h302q43 0 72.5 -12.5t59.5 -42.5l23 -23l24 23q30 30 59.5 42.5t72.5 12.5h277q43 0 72.5 -12.5t59.5 -42.5l78 -78q30 -30 42.5 -59.5t12.5 -71.5v-273l-62 -62h-527v-148q0 -14 12 -26l43 -43 q11 -11 27 -11h208q16 0 27 11l77 78l147 -146l-84 -85q-30 -30 -60 -42.5t-73 -12.5h-277q-43 0 -72.5 12.5t-59.5 42.5l-24 23l-23 -23q-30 -30 -59.5 -42.5t-72.5 -12.5h-302q-43 0 -72.5 12.5t-59.5 42.5l-78 78q-30 30 -42.5 59.5t-12.5 71.5zM302 278q0 -15 11 -26 l43 -44q11 -11 27 -11h233q16 0 27 11l44 44q8 8 10 22v476q-2 14 -10 22l-44 44q-11 11 -27 11h-233q-16 0 -27 -11l-43 -44q-11 -11 -11 -25v-469zM915 621h372v126q0 13 -12 25l-43 44q-11 11 -27 11h-208q-16 0 -27 -11l-44 -43q-11 -11 -11 -26v-126z" />
<glyph unicode="&#x178;" horiz-adv-x="1193" d="M33 1374l128 60h100l309 -740h56l309 740h100l128 -60l-389 -895h-60v-479h-232v479h-60zM342 1700v163h176v-163h-176zM678 1700v163h176v-163h-176z" />
<glyph unicode="&#x2c6;" horiz-adv-x="780" d="M86 1295l230 272h149l231 -272l-99 -91l-206 206l-207 -206z" />
<glyph unicode="&#x2dc;" horiz-adv-x="886" d="M91 1379q3 4 23 34.5t36 51t41 47.5t54 42.5t59 18.5q9 1 25 1q37 0 70 -15t85 -56q65 -51 93 -51q24 0 47.5 24t71.5 90l97 -64q-39 -99 -95 -148.5t-120 -49.5q-62 0 -124 44q-26 18 -50.5 36.5t-34 26t-19.5 12t-19 4.5t-23 -3q-50 -12 -112 -118z" />
<glyph unicode="&#x2000;" horiz-adv-x="1009" />
<glyph unicode="&#x2001;" horiz-adv-x="2018" />
<glyph unicode="&#x2002;" horiz-adv-x="1009" />
<glyph unicode="&#x2003;" horiz-adv-x="2018" />
<glyph unicode="&#x2004;" horiz-adv-x="672" />
<glyph unicode="&#x2005;" horiz-adv-x="504" />
<glyph unicode="&#x2006;" horiz-adv-x="336" />
<glyph unicode="&#x2007;" horiz-adv-x="336" />
<glyph unicode="&#x2008;" horiz-adv-x="252" />
<glyph unicode="&#x2009;" horiz-adv-x="403" />
<glyph unicode="&#x200a;" horiz-adv-x="112" />
<glyph unicode="&#x2010;" horiz-adv-x="845" d="M74 490v222h701v-222h-701z" />
<glyph unicode="&#x2011;" horiz-adv-x="845" d="M74 490v222h701v-222h-701z" />
<glyph unicode="&#x2012;" horiz-adv-x="845" d="M74 490v222h701v-222h-701z" />
<glyph unicode="&#x2013;" horiz-adv-x="978" d="M73 490v222h837v-222h-837z" />
<glyph unicode="&#x2014;" horiz-adv-x="1329" d="M70 490v222h1191v-222h-1191z" />
<glyph unicode="&#x2018;" horiz-adv-x="468" d="M75 1173v165q0 64 28 123l61 129h207l-81 -173h55v-244h-270z" />
<glyph unicode="&#x2019;" horiz-adv-x="468" d="M99 1173l81 173h-55v244h269v-166q0 -65 -27 -122l-61 -129h-207z" />
<glyph unicode="&#x201a;" horiz-adv-x="468" d="M100 -188l81 172h-55v245h269v-166q0 -67 -27 -122l-61 -129h-207z" />
<glyph unicode="&#x201c;" horiz-adv-x="811" d="M73 1173v166q0 63 28 122l61 129h206l-80 -173h53v-244h-268zM420 1173v166q0 63 28 122l61 129h206l-80 -173h53v-244h-268z" />
<glyph unicode="&#x201d;" horiz-adv-x="806" d="M98 1173l80 173h-53v244h268v-166q0 -63 -28 -122l-61 -129h-206zM444 1173l81 173h-53v244h268v-166q0 -63 -28 -122l-61 -129h-207z" />
<glyph unicode="&#x201e;" horiz-adv-x="808" d="M98 -188l80 172h-54v245h269v-166q0 -65 -28 -122l-60 -129h-207zM443 -188l81 172h-55v245h269v-166q0 -67 -27 -122l-61 -129h-207z" />
<glyph unicode="&#x2022;" horiz-adv-x="555" d="M75 390v399h408v-399h-408z" />
<glyph unicode="&#x2026;" horiz-adv-x="1140" d="M71 -76v262h269v-262h-269zM436 -76v262h269v-262h-269zM801 -76v262h269v-262h-269z" />
<glyph unicode="&#x202f;" horiz-adv-x="403" />
<glyph unicode="&#x2039;" horiz-adv-x="679" d="M74 422v231l397 371l136 -136l-288 -350l288 -351l-136 -136z" />
<glyph unicode="&#x203a;" horiz-adv-x="679" d="M75 187l288 351l-288 350l136 136l397 -371v-231l-397 -371z" />
<glyph unicode="&#x205f;" horiz-adv-x="504" />
<glyph unicode="&#x20ac;" horiz-adv-x="1157" d="M73 427v215h132v98h-132v215h132v155q0 43 12.5 73t43.5 61l79 79q31 31 60.5 43t73.5 12h538l75 -74v-141h-566q-16 0 -27 -11l-45 -44q-11 -11 -11 -26v-127h459v-141l-74 -74h-385v-98h407v-140l-75 -75h-332v-128q0 -15 11 -26l45 -45q11 -11 27 -11h566v-141 l-75 -74h-538q-44 0 -73.5 12t-60.5 43l-79 79q-31 31 -43.5 61t-12.5 73v157h-132z" />
<glyph unicode="&#x2122;" horiz-adv-x="1787" d="M67 1286v98l50 50h552l51 -50v-98h-247v-734h-159v734h-247zM798 552v832l50 50h208l197 -683h12l199 683h208l50 -50v-832h-160v657h-24l-189 -657h-178l-189 657h-25v-657h-159z" />
<glyph unicode="&#x25fc;" horiz-adv-x="1024" d="M0 0v1024h1024v-1024h-1024z" />
<glyph unicode="&#xfb01;" horiz-adv-x="1032" d="M23 827v136l62 61h88v152q0 77 55 132l78 78q30 30 59.5 42t72.5 12h105l62 -61v-136h-132q-17 0 -27 -10l-44 -44q-11 -11 -11 -26v-139h195v-197h-195v-831h-218v831h-150zM698 1133v239h244v-239h-244zM711 0v1024h218v-1024h-218z" />
<glyph unicode="&#xfb02;" horiz-adv-x="1185" d="M23 827v136l62 61h88v152q0 77 55 132l78 78q30 30 59.5 42t72.5 12h105l62 -61v-136h-132q-17 0 -27 -10l-44 -44q-11 -11 -11 -26v-139h195v-197h-195v-831h-218v831h-150zM736 264v1142l62 62h156v-1190q0 -15 11 -26l44 -45q11 -11 27 -11h127v-196h-162 q-42 0 -71.5 12t-60.5 42l-68 68q-36 35 -50.5 66t-14.5 76z" />
</font>
</defs>
</svg>
